<?xml version="1.0" encoding="UTF-8"?>
<!-- This file is generated by npm run build:icons -->
<svg xmlns="http://www.w3.org/2000/svg" xmlns:xlink="http://www.w3.org/1999/xlink" width="0" height="0">
<defs>
<symbol viewBox="0 0 15 15" fill="none" id="activity-log">
  <path
    fill-rule="evenodd"
    clip-rule="evenodd"
    d="M0 1.5C0 1.22386 0.223858 1 0.5 1H2.5C2.77614 1 3 1.22386 3 1.5C3 1.77614 2.77614 2 2.5 2H0.5C0.223858 2 0 1.77614 0 1.5ZM4 1.5C4 1.22386 4.22386 1 4.5 1H14.5C14.7761 1 15 1.22386 15 1.5C15 1.77614 14.7761 2 14.5 2H4.5C4.22386 2 4 1.77614 4 1.5ZM4 4.5C4 4.22386 4.22386 4 4.5 4H11.5C11.7761 4 12 4.22386 12 4.5C12 4.77614 11.7761 5 11.5 5H4.5C4.22386 5 4 4.77614 4 4.5ZM0 7.5C0 7.22386 0.223858 7 0.5 7H2.5C2.77614 7 3 7.22386 3 7.5C3 7.77614 2.77614 8 2.5 8H0.5C0.223858 8 0 7.77614 0 7.5ZM4 7.5C4 7.22386 4.22386 7 4.5 7H14.5C14.7761 7 15 7.22386 15 7.5C15 7.77614 14.7761 8 14.5 8H4.5C4.22386 8 4 7.77614 4 7.5ZM4 10.5C4 10.2239 4.22386 10 4.5 10H11.5C11.7761 10 12 10.2239 12 10.5C12 10.7761 11.7761 11 11.5 11H4.5C4.22386 11 4 10.7761 4 10.5ZM0 13.5C0 13.2239 0.223858 13 0.5 13H2.5C2.77614 13 3 13.2239 3 13.5C3 13.7761 2.77614 14 2.5 14H0.5C0.223858 14 0 13.7761 0 13.5ZM4 13.5C4 13.2239 4.22386 13 4.5 13H14.5C14.7761 13 15 13.2239 15 13.5C15 13.7761 14.7761 14 14.5 14H4.5C4.22386 14 4 13.7761 4 13.5Z"
    fill="currentColor"
  ></path>
</symbol>
<symbol viewBox="0 0 15 15" fill="none" id="archive">
  <path
    fill-rule="evenodd"
    clip-rule="evenodd"
    d="M3.30902 1C2.93025 1 2.58398 1.214 2.41459 1.55279L1.05279 4.27639C1.01807 4.34582 1 4.42238 1 4.5V13C1 13.5523 1.44772 14 2 14H13C13.5523 14 14 13.5523 14 13V4.5C14 4.42238 13.9819 4.34582 13.9472 4.27639L12.5854 1.55281C12.416 1.21403 12.0698 1.00003 11.691 1.00003L7.5 1.00001L3.30902 1ZM3.30902 2L7 2.00001V4H2.30902L3.30902 2ZM8 4V2.00002L11.691 2.00003L12.691 4H8ZM7.5 5H13V13H2V5H7.5ZM5.5 7C5.22386 7 5 7.22386 5 7.5C5 7.77614 5.22386 8 5.5 8H9.5C9.77614 8 10 7.77614 10 7.5C10 7.22386 9.77614 7 9.5 7H5.5Z"
    fill="currentColor"
  ></path>
</symbol>
<symbol viewBox="0 0 15 15" fill="none" id="arrow-left">
  <path     fill-rule="evenodd"
    clip-rule="evenodd"
    d="M6.85355 3.14645C7.04882 3.34171 7.04882 3.65829 6.85355 3.85355L3.70711 7H12.5C12.7761 7 13 7.22386 13 7.5C13 7.77614 12.7761 8 12.5 8H3.70711L6.85355 11.1464C7.04882 11.3417 7.04882 11.6583 6.85355 11.8536C6.65829 12.0488 6.34171 12.0488 6.14645 11.8536L2.14645 7.85355C1.95118 7.65829 1.95118 7.34171 2.14645 7.14645L6.14645 3.14645C6.34171 2.95118 6.65829 2.95118 6.85355 3.14645Z"
    fill="currentColor"
  ></path>
</symbol>
<symbol viewBox="0 0 15 15" fill="none" id="avatar">
  <path     fill-rule="evenodd"
    clip-rule="evenodd"
    d="M0.877014 7.49988C0.877014 3.84219 3.84216 0.877045 7.49985 0.877045C11.1575 0.877045 14.1227 3.84219 14.1227 7.49988C14.1227 11.1575 11.1575 14.1227 7.49985 14.1227C3.84216 14.1227 0.877014 11.1575 0.877014 7.49988ZM7.49985 1.82704C4.36683 1.82704 1.82701 4.36686 1.82701 7.49988C1.82701 8.97196 2.38774 10.3131 3.30727 11.3213C4.19074 9.94119 5.73818 9.02499 7.50023 9.02499C9.26206 9.02499 10.8093 9.94097 11.6929 11.3208C12.6121 10.3127 13.1727 8.97172 13.1727 7.49988C13.1727 4.36686 10.6328 1.82704 7.49985 1.82704ZM10.9818 11.9787C10.2839 10.7795 8.9857 9.97499 7.50023 9.97499C6.01458 9.97499 4.71624 10.7797 4.01845 11.9791C4.97952 12.7272 6.18765 13.1727 7.49985 13.1727C8.81227 13.1727 10.0206 12.727 10.9818 11.9787ZM5.14999 6.50487C5.14999 5.207 6.20212 4.15487 7.49999 4.15487C8.79786 4.15487 9.84999 5.207 9.84999 6.50487C9.84999 7.80274 8.79786 8.85487 7.49999 8.85487C6.20212 8.85487 5.14999 7.80274 5.14999 6.50487ZM7.49999 5.10487C6.72679 5.10487 6.09999 5.73167 6.09999 6.50487C6.09999 7.27807 6.72679 7.90487 7.49999 7.90487C8.27319 7.90487 8.89999 7.27807 8.89999 6.50487C8.89999 5.73167 8.27319 5.10487 7.49999 5.10487Z"
    fill="currentColor"
  ></path>
</symbol>
<symbol viewBox="0 0 15 15" fill="none" id="bar-chart">
  <path
    fill-rule="evenodd"
    clip-rule="evenodd"
    d="M11.5 1C11.7761 1 12 1.22386 12 1.5V13.5C12 13.7761 11.7761 14 11.5 14C11.2239 14 11 13.7761 11 13.5V1.5C11 1.22386 11.2239 1 11.5 1ZM9.5 3C9.77614 3 10 3.22386 10 3.5V13.5C10 13.7761 9.77614 14 9.5 14C9.22386 14 9 13.7761 9 13.5V3.5C9 3.22386 9.22386 3 9.5 3ZM13.5 3C13.7761 3 14 3.22386 14 3.5V13.5C14 13.7761 13.7761 14 13.5 14C13.2239 14 13 13.7761 13 13.5V3.5C13 3.22386 13.2239 3 13.5 3ZM5.5 4C5.77614 4 6 4.22386 6 4.5V13.5C6 13.7761 5.77614 14 5.5 14C5.22386 14 5 13.7761 5 13.5V4.5C5 4.22386 5.22386 4 5.5 4ZM1.5 5C1.77614 5 2 5.22386 2 5.5V13.5C2 13.7761 1.77614 14 1.5 14C1.22386 14 1 13.7761 1 13.5V5.5C1 5.22386 1.22386 5 1.5 5ZM7.5 5C7.77614 5 8 5.22386 8 5.5V13.5C8 13.7761 7.77614 14 7.5 14C7.22386 14 7 13.7761 7 13.5V5.5C7 5.22386 7.22386 5 7.5 5ZM3.5 7C3.77614 7 4 7.22386 4 7.5V13.5C4 13.7761 3.77614 14 3.5 14C3.22386 14 3 13.7761 3 13.5V7.5C3 7.22386 3.22386 7 3.5 7Z"
    fill="currentColor"
  ></path>
</symbol>
<symbol viewBox="0 0 15 15" fill="none" id="bell">
  <path
    fill-rule="evenodd"
    clip-rule="evenodd"
    d="M8.60124 1.25086C8.60124 1.75459 8.26278 2.17927 7.80087 2.30989C10.1459 2.4647 12 4.41582 12 6.79999V10.25C12 11.0563 12.0329 11.7074 12.7236 12.0528C12.931 12.1565 13.0399 12.3892 12.9866 12.6149C12.9333 12.8406 12.7319 13 12.5 13H8.16144C8.36904 13.1832 8.49997 13.4513 8.49997 13.75C8.49997 14.3023 8.05226 14.75 7.49997 14.75C6.94769 14.75 6.49997 14.3023 6.49997 13.75C6.49997 13.4513 6.63091 13.1832 6.83851 13H2.49999C2.2681 13 2.06664 12.8406 2.01336 12.6149C1.96009 12.3892 2.06897 12.1565 2.27638 12.0528C2.96708 11.7074 2.99999 11.0563 2.99999 10.25V6.79999C2.99999 4.41537 4.85481 2.46396 7.20042 2.3098C6.73867 2.17908 6.40036 1.75448 6.40036 1.25086C6.40036 0.643104 6.89304 0.150421 7.5008 0.150421C8.10855 0.150421 8.60124 0.643104 8.60124 1.25086ZM7.49999 3.29999C5.56699 3.29999 3.99999 4.86699 3.99999 6.79999V10.25L4.00002 10.3009C4.0005 10.7463 4.00121 11.4084 3.69929 12H11.3007C10.9988 11.4084 10.9995 10.7463 11 10.3009L11 10.25V6.79999C11 4.86699 9.43299 3.29999 7.49999 3.29999Z"
    fill="currentColor"
  ></path>
</symbol>
<symbol viewBox="0 0 15 15" fill="none" id="button">
  <path
    fill-rule="evenodd"
    clip-rule="evenodd"
    d="M2 5H13C13.5523 5 14 5.44772 14 6V9C14 9.55228 13.5523 10 13 10H2C1.44772 10 1 9.55228 1 9V6C1 5.44772 1.44772 5 2 5ZM0 6C0 4.89543 0.895431 4 2 4H13C14.1046 4 15 4.89543 15 6V9C15 10.1046 14.1046 11 13 11H2C0.89543 11 0 10.1046 0 9V6ZM4.5 6.75C4.08579 6.75 3.75 7.08579 3.75 7.5C3.75 7.91421 4.08579 8.25 4.5 8.25C4.91421 8.25 5.25 7.91421 5.25 7.5C5.25 7.08579 4.91421 6.75 4.5 6.75ZM6.75 7.5C6.75 7.08579 7.08579 6.75 7.5 6.75C7.91421 6.75 8.25 7.08579 8.25 7.5C8.25 7.91421 7.91421 8.25 7.5 8.25C7.08579 8.25 6.75 7.91421 6.75 7.5ZM10.5 6.75C10.0858 6.75 9.75 7.08579 9.75 7.5C9.75 7.91421 10.0858 8.25 10.5 8.25C10.9142 8.25 11.25 7.91421 11.25 7.5C11.25 7.08579 10.9142 6.75 10.5 6.75Z"
    fill="currentColor"
  ></path>
</symbol>
<symbol viewBox="0 0 15 15" fill="none" id="calendar">
  <path
    fill-rule="evenodd"
    clip-rule="evenodd"
    d="M4.5 1C4.77614 1 5 1.22386 5 1.5V2H10V1.5C10 1.22386 10.2239 1 10.5 1C10.7761 1 11 1.22386 11 1.5V2H12.5C13.3284 2 14 2.67157 14 3.5V12.5C14 13.3284 13.3284 14 12.5 14H2.5C1.67157 14 1 13.3284 1 12.5V3.5C1 2.67157 1.67157 2 2.5 2H4V1.5C4 1.22386 4.22386 1 4.5 1ZM10 3V3.5C10 3.77614 10.2239 4 10.5 4C10.7761 4 11 3.77614 11 3.5V3H12.5C12.7761 3 13 3.22386 13 3.5V5H2V3.5C2 3.22386 2.22386 3 2.5 3H4V3.5C4 3.77614 4.22386 4 4.5 4C4.77614 4 5 3.77614 5 3.5V3H10ZM2 6V12.5C2 12.7761 2.22386 13 2.5 13H12.5C12.7761 13 13 12.7761 13 12.5V6H2ZM7 7.5C7 7.22386 7.22386 7 7.5 7C7.77614 7 8 7.22386 8 7.5C8 7.77614 7.77614 8 7.5 8C7.22386 8 7 7.77614 7 7.5ZM9.5 7C9.22386 7 9 7.22386 9 7.5C9 7.77614 9.22386 8 9.5 8C9.77614 8 10 7.77614 10 7.5C10 7.22386 9.77614 7 9.5 7ZM11 7.5C11 7.22386 11.2239 7 11.5 7C11.7761 7 12 7.22386 12 7.5C12 7.77614 11.7761 8 11.5 8C11.2239 8 11 7.77614 11 7.5ZM11.5 9C11.2239 9 11 9.22386 11 9.5C11 9.77614 11.2239 10 11.5 10C11.7761 10 12 9.77614 12 9.5C12 9.22386 11.7761 9 11.5 9ZM9 9.5C9 9.22386 9.22386 9 9.5 9C9.77614 9 10 9.22386 10 9.5C10 9.77614 9.77614 10 9.5 10C9.22386 10 9 9.77614 9 9.5ZM7.5 9C7.22386 9 7 9.22386 7 9.5C7 9.77614 7.22386 10 7.5 10C7.77614 10 8 9.77614 8 9.5C8 9.22386 7.77614 9 7.5 9ZM5 9.5C5 9.22386 5.22386 9 5.5 9C5.77614 9 6 9.22386 6 9.5C6 9.77614 5.77614 10 5.5 10C5.22386 10 5 9.77614 5 9.5ZM3.5 9C3.22386 9 3 9.22386 3 9.5C3 9.77614 3.22386 10 3.5 10C3.77614 10 4 9.77614 4 9.5C4 9.22386 3.77614 9 3.5 9ZM3 11.5C3 11.2239 3.22386 11 3.5 11C3.77614 11 4 11.2239 4 11.5C4 11.7761 3.77614 12 3.5 12C3.22386 12 3 11.7761 3 11.5ZM5.5 11C5.22386 11 5 11.2239 5 11.5C5 11.7761 5.22386 12 5.5 12C5.77614 12 6 11.7761 6 11.5C6 11.2239 5.77614 11 5.5 11ZM7 11.5C7 11.2239 7.22386 11 7.5 11C7.77614 11 8 11.2239 8 11.5C8 11.7761 7.77614 12 7.5 12C7.22386 12 7 11.7761 7 11.5ZM9.5 11C9.22386 11 9 11.2239 9 11.5C9 11.7761 9.22386 12 9.5 12C9.77614 12 10 11.7761 10 11.5C10 11.2239 9.77614 11 9.5 11Z"
    fill="currentColor"
  ></path>
</symbol>
<symbol viewBox="0 0 15 15" fill="none" id="camera">
  <path     fill-rule="evenodd"
    clip-rule="evenodd"
    d="M2 3C1.44772 3 1 3.44772 1 4V11C1 11.5523 1.44772 12 2 12H13C13.5523 12 14 11.5523 14 11V4C14 3.44772 13.5523 3 13 3H2ZM0 4C0 2.89543 0.895431 2 2 2H13C14.1046 2 15 2.89543 15 4V11C15 12.1046 14.1046 13 13 13H2C0.895431 13 0 12.1046 0 11V4ZM2 4.25C2 4.11193 2.11193 4 2.25 4H4.75C4.88807 4 5 4.11193 5 4.25V5.75454C5 5.89261 4.88807 6.00454 4.75 6.00454H2.25C2.11193 6.00454 2 5.89261 2 5.75454V4.25ZM12.101 7.58421C12.101 9.02073 10.9365 10.1853 9.49998 10.1853C8.06346 10.1853 6.89893 9.02073 6.89893 7.58421C6.89893 6.14769 8.06346 4.98315 9.49998 4.98315C10.9365 4.98315 12.101 6.14769 12.101 7.58421ZM13.101 7.58421C13.101 9.57302 11.4888 11.1853 9.49998 11.1853C7.51117 11.1853 5.89893 9.57302 5.89893 7.58421C5.89893 5.5954 7.51117 3.98315 9.49998 3.98315C11.4888 3.98315 13.101 5.5954 13.101 7.58421Z"
    fill="currentColor"
  ></path>
</symbol>
<symbol viewBox="0 0 15 15" fill="none" id="chat-bubble">
  <path
    fill-rule="evenodd"
    clip-rule="evenodd"
    d="M12.5 3L2.5 3.00002C1.67157 3.00002 1 3.6716 1 4.50002V9.50003C1 10.3285 1.67157 11 2.5 11H7.50003C7.63264 11 7.75982 11.0527 7.85358 11.1465L10 13.2929V11.5C10 11.2239 10.2239 11 10.5 11H12.5C13.3284 11 14 10.3285 14 9.50003V4.5C14 3.67157 13.3284 3 12.5 3ZM2.49999 2.00002L12.5 2C13.8807 2 15 3.11929 15 4.5V9.50003C15 10.8807 13.8807 12 12.5 12H11V14.5C11 14.7022 10.8782 14.8845 10.6913 14.9619C10.5045 15.0393 10.2894 14.9965 10.1464 14.8536L7.29292 12H2.5C1.11929 12 0 10.8807 0 9.50003V4.50002C0 3.11931 1.11928 2.00003 2.49999 2.00002Z"
    fill="currentColor"
  ></path>
</symbol>
<symbol viewBox="0 0 15 15" fill="none" id="check">
  <path     fill-rule="evenodd"
    clip-rule="evenodd"
    d="M11.4669 3.72684C11.7558 3.91574 11.8369 4.30308 11.648 4.59198L7.39799 11.092C7.29783 11.2452 7.13556 11.3467 6.95402 11.3699C6.77247 11.3931 6.58989 11.3355 6.45446 11.2124L3.70446 8.71241C3.44905 8.48022 3.43023 8.08494 3.66242 7.82953C3.89461 7.57412 4.28989 7.55529 4.5453 7.78749L6.75292 9.79441L10.6018 3.90792C10.7907 3.61902 11.178 3.53795 11.4669 3.72684Z"
    fill="currentColor"
  ></path>
</symbol>
<symbol viewBox="0 0 15 15" fill="none" id="checkbox">
  <path
    fill-rule="evenodd"
    clip-rule="evenodd"
    d="M3 3H12V12H3L3 3ZM2 3C2 2.44771 2.44772 2 3 2H12C12.5523 2 13 2.44772 13 3V12C13 12.5523 12.5523 13 12 13H3C2.44771 13 2 12.5523 2 12V3ZM10.3498 5.51105C10.506 5.28337 10.4481 4.97212 10.2204 4.81587C9.99275 4.65961 9.6815 4.71751 9.52525 4.94519L6.64048 9.14857L5.19733 7.40889C5.02102 7.19635 4.7058 7.16699 4.49327 7.34329C4.28073 7.5196 4.25137 7.83482 4.42767 8.04735L6.2934 10.2964C6.39348 10.4171 6.54437 10.4838 6.70097 10.4767C6.85757 10.4695 7.00177 10.3894 7.09047 10.2601L10.3498 5.51105Z"
    fill="currentColor"
  ></path>
</symbol>
<symbol viewBox="0 0 15 15" fill="none" id="chevron-left">
  <path
    fill-rule="evenodd"
    clip-rule="evenodd"
    d="M8.84182 3.13514C9.04327 3.32401 9.05348 3.64042 8.86462 3.84188L5.43521 7.49991L8.86462 11.1579C9.05348 11.3594 9.04327 11.6758 8.84182 11.8647C8.64036 12.0535 8.32394 12.0433 8.13508 11.8419L4.38508 7.84188C4.20477 7.64955 4.20477 7.35027 4.38508 7.15794L8.13508 3.15794C8.32394 2.95648 8.64036 2.94628 8.84182 3.13514Z"
    fill="currentColor"
  ></path>
</symbol>
<symbol viewBox="0 0 15 15" fill="none" id="chevron-right">
  <path
    fill-rule="evenodd"
    clip-rule="evenodd"
    d="M6.1584 3.13508C6.35985 2.94621 6.67627 2.95642 6.86514 3.15788L10.6151 7.15788C10.7954 7.3502 10.7954 7.64949 10.6151 7.84182L6.86514 11.8418C6.67627 12.0433 6.35985 12.0535 6.1584 11.8646C5.95694 11.6757 5.94673 11.3593 6.1356 11.1579L9.565 7.49985L6.1356 3.84182C5.94673 3.64036 5.95694 3.32394 6.1584 3.13508Z"
    fill="currentColor"
  ></path>
</symbol>
<symbol viewBox="0 0 15 15" fill="none" id="circle">
  <path
    fill-rule="evenodd"
    clip-rule="evenodd"
    d="M0.877075 7.49991C0.877075 3.84222 3.84222 0.877075 7.49991 0.877075C11.1576 0.877075 14.1227 3.84222 14.1227 7.49991C14.1227 11.1576 11.1576 14.1227 7.49991 14.1227C3.84222 14.1227 0.877075 11.1576 0.877075 7.49991ZM7.49991 1.82708C4.36689 1.82708 1.82708 4.36689 1.82708 7.49991C1.82708 10.6329 4.36689 13.1727 7.49991 13.1727C10.6329 13.1727 13.1727 10.6329 13.1727 7.49991C13.1727 4.36689 10.6329 1.82708 7.49991 1.82708Z"
    fill="currentColor"
  ></path>
</symbol>
<symbol viewBox="0 0 15 15" fill="none" id="clock">
  <path     fill-rule="evenodd"
    clip-rule="evenodd"
    d="M7.50009 0.877014C3.84241 0.877014 0.877258 3.84216 0.877258 7.49984C0.877258 11.1575 3.8424 14.1227 7.50009 14.1227C11.1578 14.1227 14.1229 11.1575 14.1229 7.49984C14.1229 3.84216 11.1577 0.877014 7.50009 0.877014ZM1.82726 7.49984C1.82726 4.36683 4.36708 1.82701 7.50009 1.82701C10.6331 1.82701 13.1729 4.36683 13.1729 7.49984C13.1729 10.6328 10.6331 13.1727 7.50009 13.1727C4.36708 13.1727 1.82726 10.6328 1.82726 7.49984ZM8 4.50001C8 4.22387 7.77614 4.00001 7.5 4.00001C7.22386 4.00001 7 4.22387 7 4.50001V7.50001C7 7.63262 7.05268 7.7598 7.14645 7.85357L9.14645 9.85357C9.34171 10.0488 9.65829 10.0488 9.85355 9.85357C10.0488 9.65831 10.0488 9.34172 9.85355 9.14646L8 7.29291V4.50001Z"
    fill="currentColor"
  ></path>
</symbol>
<symbol viewBox="0 0 15 15" fill="none" id="code">
  <path
    fill-rule="evenodd"
    clip-rule="evenodd"
    d="M9.96424 2.68571C10.0668 2.42931 9.94209 2.13833 9.6857 2.03577C9.4293 1.93322 9.13832 2.05792 9.03576 2.31432L5.03576 12.3143C4.9332 12.5707 5.05791 12.8617 5.3143 12.9642C5.5707 13.0668 5.86168 12.9421 5.96424 12.6857L9.96424 2.68571ZM3.85355 5.14646C4.04882 5.34172 4.04882 5.6583 3.85355 5.85356L2.20711 7.50001L3.85355 9.14646C4.04882 9.34172 4.04882 9.6583 3.85355 9.85356C3.65829 10.0488 3.34171 10.0488 3.14645 9.85356L1.14645 7.85356C0.951184 7.6583 0.951184 7.34172 1.14645 7.14646L3.14645 5.14646C3.34171 4.9512 3.65829 4.9512 3.85355 5.14646ZM11.1464 5.14646C11.3417 4.9512 11.6583 4.9512 11.8536 5.14646L13.8536 7.14646C14.0488 7.34172 14.0488 7.6583 13.8536 7.85356L11.8536 9.85356C11.6583 10.0488 11.3417 10.0488 11.1464 9.85356C10.9512 9.6583 10.9512 9.34172 11.1464 9.14646L12.7929 7.50001L11.1464 5.85356C10.9512 5.6583 10.9512 5.34172 11.1464 5.14646Z"
    fill="currentColor"
  ></path>
</symbol>
<symbol viewBox="0 0 15 15" fill="none" id="columns">
  <path
    fill-rule="evenodd"
    clip-rule="evenodd"
    d="M2.14998 14V1H0.849976V14H2.14998ZM6.14998 14V1H4.84998V14H6.14998ZM10.15 1V14H8.84998V1H10.15ZM14.15 14V1H12.85V14H14.15Z"
    fill="currentColor"
  ></path>
</symbol>
<symbol viewBox="0 0 15 15" fill="none" id="commit">
  <path
    fill-rule="evenodd"
    clip-rule="evenodd"
    d="M9.94969 7.49989C9.94969 8.85288 8.85288 9.94969 7.49989 9.94969C6.14691 9.94969 5.0501 8.85288 5.0501 7.49989C5.0501 6.14691 6.14691 5.0501 7.49989 5.0501C8.85288 5.0501 9.94969 6.14691 9.94969 7.49989ZM10.8632 8C10.6213 9.64055 9.20764 10.8997 7.49989 10.8997C5.79214 10.8997 4.37847 9.64055 4.13662 8H0.5C0.223858 8 0 7.77614 0 7.5C0 7.22386 0.223858 7 0.5 7H4.13659C4.37835 5.35935 5.79206 4.1001 7.49989 4.1001C9.20772 4.1001 10.6214 5.35935 10.8632 7H14.5C14.7761 7 15 7.22386 15 7.5C15 7.77614 14.7761 8 14.5 8H10.8632Z"
    fill="currentColor"
  ></path>
</symbol>
<symbol viewBox="0 0 15 15" fill="none" id="container">
  <path
    fill-rule="evenodd"
    clip-rule="evenodd"
    d="M2 1.5C2 1.77614 1.77614 2 1.5 2C1.22386 2 1 1.77614 1 1.5C1 1.22386 1.22386 1 1.5 1C1.77614 1 2 1.22386 2 1.5ZM5 13H10V2L5 2L5 13ZM4 13C4 13.5523 4.44772 14 5 14H10C10.5523 14 11 13.5523 11 13V2C11 1.44772 10.5523 1 10 1H5C4.44772 1 4 1.44771 4 2V13ZM13.5 2C13.7761 2 14 1.77614 14 1.5C14 1.22386 13.7761 1 13.5 1C13.2239 1 13 1.22386 13 1.5C13 1.77614 13.2239 2 13.5 2ZM2 3.5C2 3.77614 1.77614 4 1.5 4C1.22386 4 1 3.77614 1 3.5C1 3.22386 1.22386 3 1.5 3C1.77614 3 2 3.22386 2 3.5ZM13.5 4C13.7761 4 14 3.77614 14 3.5C14 3.22386 13.7761 3 13.5 3C13.2239 3 13 3.22386 13 3.5C13 3.77614 13.2239 4 13.5 4ZM2 5.5C2 5.77614 1.77614 6 1.5 6C1.22386 6 1 5.77614 1 5.5C1 5.22386 1.22386 5 1.5 5C1.77614 5 2 5.22386 2 5.5ZM13.5 6C13.7761 6 14 5.77614 14 5.5C14 5.22386 13.7761 5 13.5 5C13.2239 5 13 5.22386 13 5.5C13 5.77614 13.2239 6 13.5 6ZM2 7.5C2 7.77614 1.77614 8 1.5 8C1.22386 8 1 7.77614 1 7.5C1 7.22386 1.22386 7 1.5 7C1.77614 7 2 7.22386 2 7.5ZM13.5 8C13.7761 8 14 7.77614 14 7.5C14 7.22386 13.7761 7 13.5 7C13.2239 7 13 7.22386 13 7.5C13 7.77614 13.2239 8 13.5 8ZM2 9.5C2 9.77614 1.77614 10 1.5 10C1.22386 10 1 9.77614 1 9.5C1 9.22386 1.22386 9 1.5 9C1.77614 9 2 9.22386 2 9.5ZM13.5 10C13.7761 10 14 9.77614 14 9.5C14 9.22386 13.7761 9 13.5 9C13.2239 9 13 9.22386 13 9.5C13 9.77614 13.2239 10 13.5 10ZM2 11.5C2 11.7761 1.77614 12 1.5 12C1.22386 12 1 11.7761 1 11.5C1 11.2239 1.22386 11 1.5 11C1.77614 11 2 11.2239 2 11.5ZM13.5 12C13.7761 12 14 11.7761 14 11.5C14 11.2239 13.7761 11 13.5 11C13.2239 11 13 11.2239 13 11.5C13 11.7761 13.2239 12 13.5 12ZM2 13.5C2 13.7761 1.77614 14 1.5 14C1.22386 14 1 13.7761 1 13.5C1 13.2239 1.22386 13 1.5 13C1.77614 13 2 13.2239 2 13.5ZM13.5 14C13.7761 14 14 13.7761 14 13.5C14 13.2239 13.7761 13 13.5 13C13.2239 13 13 13.2239 13 13.5C13 13.7761 13.2239 14 13.5 14Z"
    fill="currentColor"
  ></path>
</symbol>
<symbol viewBox="0 0 15 15" fill="none" id="cookie">
  <path
    fill-rule="evenodd"
    clip-rule="evenodd"
    d="M12.0697 1.76746C12.4807 1.21947 11.4605 0.454311 11.0495 1.0023C10.6385 1.55028 11.6588 2.31544 12.0697 1.76746ZM8.39263 1.07811C7.15585 0.950602 5.7823 1.16348 4.58433 1.70937C3.38552 2.25563 2.32735 3.15309 1.78844 4.41832C1.37574 5.38724 1.01715 6.28113 1.00088 7.44354C0.984724 8.59844 1.30522 9.96898 2.13174 11.928C2.61142 13.0649 4.03963 13.5446 5.13895 13.8079C6.40836 14.1119 7.80857 14.1914 8.6644 14.0742C9.36515 13.9782 10.1448 13.8284 10.7987 13.297C11.8977 12.4039 12.9009 11.3955 13.4994 10.3393C14.104 9.27221 14.3256 8.09207 13.7216 6.95324C13.5628 6.65373 13.316 6.57734 13.0412 6.4923C12.9374 6.46016 12.8295 6.42678 12.7209 6.37966C11.6211 5.90234 10.9646 5.34963 10.9135 5.02876C10.8656 4.72808 10.9221 4.51463 10.9811 4.29181C11.0129 4.17199 11.0453 4.04947 11.0626 3.90922C11.0838 3.73737 11.0814 3.33319 10.6996 3.12761C10.4048 2.96888 10.2164 2.65843 10.0407 2.36904C9.99742 2.29775 9.95492 2.22773 9.9118 2.16158C9.62634 1.72367 9.20769 1.16213 8.39263 1.07811ZM4.99899 2.61935C3.96483 3.09058 3.12554 3.83097 2.70846 4.81018C2.29808 5.77368 2.01406 6.50873 2.00079 7.45753C1.98741 8.41385 2.25043 9.6368 3.0531 11.5393C3.39181 12.3421 4.62167 12.6557 5.37186 12.8354C6.5493 13.1174 7.822 13.1802 8.52868 13.0834C9.21271 12.9897 9.74568 12.8642 10.1681 12.5209C11.229 11.6587 12.121 10.7435 12.6293 9.84635C12.9349 9.30709 13.5141 7.7028 12.6292 7.3873C10.7539 6.71875 10.262 6.06669 9.99011 5.41268C9.80915 4.97744 9.82868 4.52282 9.95741 4.07885L9.95741 4.07884C9.97662 4.0126 9.99538 3.94791 10.0334 3.88882C9.81857 3.73676 9.6515 3.55195 9.51464 3.3715C9.42876 3.25828 9.3469 3.12099 9.26197 2.97856C9.01866 2.57052 8.75018 2.12027 8.29008 2.07283C7.22889 1.96343 6.03398 2.14772 4.99899 2.61935ZM13.2081 3.77471C13.441 3.22671 12.4547 2.63606 12.0822 3.10163C11.5817 3.72732 12.9029 4.49281 13.2081 3.77471ZM14.3672 2.26031C14.9668 2.27493 15.1551 1.11603 14.5718 0.949371C13.8076 0.731026 13.5918 2.24139 14.3672 2.26031ZM14.2857 5.09098C14.8644 5.10004 15.0462 4.38222 14.4832 4.27899C13.7455 4.14375 13.5373 5.07927 14.2857 5.09098ZM6.9075 4.28672C6.46898 4.66754 6.0522 4.15185 5.97983 3.7365C5.86848 3.09744 6.33696 2.56856 6.94823 2.91156C7.43344 3.18382 7.26678 3.97471 6.9075 4.28672ZM4.94455 5.88184C5.40885 5.41754 4.59567 4.57013 4.11425 5.05154C3.83338 5.33242 4.00936 5.65376 4.23744 5.88184C4.43271 6.0771 4.74929 6.0771 4.94455 5.88184ZM6.97716 6.71984C7.31181 7.38914 8.48804 6.79159 7.99413 6.14788C7.86519 5.97983 7.68657 5.9494 7.62145 5.94207C7.21217 5.89601 6.76349 6.2925 6.97716 6.71984ZM6.98798 8.72461C7.14066 9.1188 7.51122 9.3187 7.91915 9.1633C8.27434 9.02799 8.33186 8.39689 8.17175 8.07427C8.02331 7.77514 7.63956 7.67793 7.33747 7.79417C6.98512 7.92976 6.85672 8.38708 6.98576 8.71889L6.98798 8.72461ZM10.3885 8.84081C10.7575 8.6566 11.4617 8.82771 11.4617 9.31199C11.4617 9.71286 10.9587 10.2165 10.5634 10.2826C10.1813 10.3465 9.70515 9.97581 9.76648 9.57718C9.81445 9.26539 10.1217 8.97401 10.3885 8.84081ZM7.56704 10.8432C7.33461 10.7502 7.14353 10.8601 7.11437 10.8769L7.11279 10.8778C6.90782 10.9949 6.71383 11.2439 6.6747 11.4842C6.59018 12.0034 7.13199 12.1239 7.52661 12.0987C8.2074 12.0553 8.06547 11.0426 7.56704 10.8432ZM4.8805 10.8932C5.0674 10.7723 5.15658 10.5363 5.08293 10.3153C4.93046 9.79687 4.3246 9.71252 3.96561 10.1297C3.79336 10.3299 3.80749 10.6274 3.99214 10.8105L3.99495 10.814L3.9979 10.8176C4.22025 11.0942 4.63624 11.1857 4.8805 10.8932ZM3.04695 7.81318C3.33147 8.0977 3.60077 8.15067 3.98443 8.05859C4.60826 7.90887 4.13814 6.24299 3.047 6.87296C2.70939 7.06788 2.86716 7.63339 3.04695 7.81318Z"
    fill="currentColor"
  ></path>
</symbol>
<symbol viewBox="0 0 15 15" fill="none" id="cross-1">
  <path     fill-rule="evenodd"
    clip-rule="evenodd"
    d="M12.8536 2.85355C13.0488 2.65829 13.0488 2.34171 12.8536 2.14645C12.6583 1.95118 12.3417 1.95118 12.1464 2.14645L7.5 6.79289L2.85355 2.14645C2.65829 1.95118 2.34171 1.95118 2.14645 2.14645C1.95118 2.34171 1.95118 2.65829 2.14645 2.85355L6.79289 7.5L2.14645 12.1464C1.95118 12.3417 1.95118 12.6583 2.14645 12.8536C2.34171 13.0488 2.65829 13.0488 2.85355 12.8536L7.5 8.20711L12.1464 12.8536C12.3417 13.0488 12.6583 13.0488 12.8536 12.8536C13.0488 12.6583 13.0488 12.3417 12.8536 12.1464L8.20711 7.5L12.8536 2.85355Z"
    fill="currentColor"
  ></path>
</symbol>
<symbol viewBox="0 0 15 15" fill="none" id="dashboard">
  <path
    fill-rule="evenodd"
    clip-rule="evenodd"
    d="M2.8 1L2.74967 0.99997C2.52122 0.999752 2.32429 0.999564 2.14983 1.04145C1.60136 1.17312 1.17312 1.60136 1.04145 2.14983C0.999564 2.32429 0.999752 2.52122 0.99997 2.74967L1 2.8V5.2L0.99997 5.25033C0.999752 5.47878 0.999564 5.67572 1.04145 5.85017C1.17312 6.39864 1.60136 6.82688 2.14983 6.95856C2.32429 7.00044 2.52122 7.00025 2.74967 7.00003L2.8 7H5.2L5.25033 7.00003C5.47878 7.00025 5.67572 7.00044 5.85017 6.95856C6.39864 6.82688 6.82688 6.39864 6.95856 5.85017C7.00044 5.67572 7.00025 5.47878 7.00003 5.25033L7 5.2V2.8L7.00003 2.74967C7.00025 2.52122 7.00044 2.32429 6.95856 2.14983C6.82688 1.60136 6.39864 1.17312 5.85017 1.04145C5.67572 0.999564 5.47878 0.999752 5.25033 0.99997L5.2 1H2.8ZM2.38328 2.01382C2.42632 2.00348 2.49222 2 2.8 2H5.2C5.50779 2 5.57369 2.00348 5.61672 2.01382C5.79955 2.05771 5.94229 2.20045 5.98619 2.38328C5.99652 2.42632 6 2.49222 6 2.8V5.2C6 5.50779 5.99652 5.57369 5.98619 5.61672C5.94229 5.79955 5.79955 5.94229 5.61672 5.98619C5.57369 5.99652 5.50779 6 5.2 6H2.8C2.49222 6 2.42632 5.99652 2.38328 5.98619C2.20045 5.94229 2.05771 5.79955 2.01382 5.61672C2.00348 5.57369 2 5.50779 2 5.2V2.8C2 2.49222 2.00348 2.42632 2.01382 2.38328C2.05771 2.20045 2.20045 2.05771 2.38328 2.01382ZM9.8 1L9.74967 0.99997C9.52122 0.999752 9.32429 0.999564 9.14983 1.04145C8.60136 1.17312 8.17312 1.60136 8.04145 2.14983C7.99956 2.32429 7.99975 2.52122 7.99997 2.74967L8 2.8V5.2L7.99997 5.25033C7.99975 5.47878 7.99956 5.67572 8.04145 5.85017C8.17312 6.39864 8.60136 6.82688 9.14983 6.95856C9.32429 7.00044 9.52122 7.00025 9.74967 7.00003L9.8 7H12.2L12.2503 7.00003C12.4788 7.00025 12.6757 7.00044 12.8502 6.95856C13.3986 6.82688 13.8269 6.39864 13.9586 5.85017C14.0004 5.67572 14.0003 5.47878 14 5.25033L14 5.2V2.8L14 2.74967C14.0003 2.52122 14.0004 2.32429 13.9586 2.14983C13.8269 1.60136 13.3986 1.17312 12.8502 1.04145C12.6757 0.999564 12.4788 0.999752 12.2503 0.99997L12.2 1H9.8ZM9.38328 2.01382C9.42632 2.00348 9.49222 2 9.8 2H12.2C12.5078 2 12.5737 2.00348 12.6167 2.01382C12.7995 2.05771 12.9423 2.20045 12.9862 2.38328C12.9965 2.42632 13 2.49222 13 2.8V5.2C13 5.50779 12.9965 5.57369 12.9862 5.61672C12.9423 5.79955 12.7995 5.94229 12.6167 5.98619C12.5737 5.99652 12.5078 6 12.2 6H9.8C9.49222 6 9.42632 5.99652 9.38328 5.98619C9.20045 5.94229 9.05771 5.79955 9.01382 5.61672C9.00348 5.57369 9 5.50779 9 5.2V2.8C9 2.49222 9.00348 2.42632 9.01382 2.38328C9.05771 2.20045 9.20045 2.05771 9.38328 2.01382ZM2.74967 7.99997L2.8 8H5.2L5.25033 7.99997C5.47878 7.99975 5.67572 7.99956 5.85017 8.04145C6.39864 8.17312 6.82688 8.60136 6.95856 9.14983C7.00044 9.32429 7.00025 9.52122 7.00003 9.74967L7 9.8V12.2L7.00003 12.2503C7.00025 12.4788 7.00044 12.6757 6.95856 12.8502C6.82688 13.3986 6.39864 13.8269 5.85017 13.9586C5.67572 14.0004 5.47878 14.0003 5.25033 14L5.2 14H2.8L2.74967 14C2.52122 14.0003 2.32429 14.0004 2.14983 13.9586C1.60136 13.8269 1.17312 13.3986 1.04145 12.8502C0.999564 12.6757 0.999752 12.4788 0.99997 12.2503L1 12.2V9.8L0.99997 9.74967C0.999752 9.52122 0.999564 9.32429 1.04145 9.14983C1.17312 8.60136 1.60136 8.17312 2.14983 8.04145C2.32429 7.99956 2.52122 7.99975 2.74967 7.99997ZM2.8 9C2.49222 9 2.42632 9.00348 2.38328 9.01382C2.20045 9.05771 2.05771 9.20045 2.01382 9.38328C2.00348 9.42632 2 9.49222 2 9.8V12.2C2 12.5078 2.00348 12.5737 2.01382 12.6167C2.05771 12.7995 2.20045 12.9423 2.38328 12.9862C2.42632 12.9965 2.49222 13 2.8 13H5.2C5.50779 13 5.57369 12.9965 5.61672 12.9862C5.79955 12.9423 5.94229 12.7995 5.98619 12.6167C5.99652 12.5737 6 12.5078 6 12.2V9.8C6 9.49222 5.99652 9.42632 5.98619 9.38328C5.94229 9.20045 5.79955 9.05771 5.61672 9.01382C5.57369 9.00348 5.50779 9 5.2 9H2.8ZM9.8 8L9.74967 7.99997C9.52122 7.99975 9.32429 7.99956 9.14983 8.04145C8.60136 8.17312 8.17312 8.60136 8.04145 9.14983C7.99956 9.32429 7.99975 9.52122 7.99997 9.74967L8 9.8V12.2L7.99997 12.2503C7.99975 12.4788 7.99956 12.6757 8.04145 12.8502C8.17312 13.3986 8.60136 13.8269 9.14983 13.9586C9.32429 14.0004 9.52122 14.0003 9.74967 14L9.8 14H12.2L12.2503 14C12.4788 14.0003 12.6757 14.0004 12.8502 13.9586C13.3986 13.8269 13.8269 13.3986 13.9586 12.8502C14.0004 12.6757 14.0003 12.4788 14 12.2503L14 12.2V9.8L14 9.74967C14.0003 9.52122 14.0004 9.32429 13.9586 9.14983C13.8269 8.60136 13.3986 8.17312 12.8502 8.04145C12.6757 7.99956 12.4788 7.99975 12.2503 7.99997L12.2 8H9.8ZM9.38328 9.01382C9.42632 9.00348 9.49222 9 9.8 9H12.2C12.5078 9 12.5737 9.00348 12.6167 9.01382C12.7995 9.05771 12.9423 9.20045 12.9862 9.38328C12.9965 9.42632 13 9.49222 13 9.8V12.2C13 12.5078 12.9965 12.5737 12.9862 12.6167C12.9423 12.7995 12.7995 12.9423 12.6167 12.9862C12.5737 12.9965 12.5078 13 12.2 13H9.8C9.49222 13 9.42632 12.9965 9.38328 12.9862C9.20045 12.9423 9.05771 12.7995 9.01382 12.6167C9.00348 12.5737 9 12.5078 9 12.2V9.8C9 9.49222 9.00348 9.42632 9.01382 9.38328C9.05771 9.20045 9.20045 9.05771 9.38328 9.01382Z"
    fill="currentColor"
  ></path>
</symbol>
<symbol viewBox="0 0 15 15" fill="none" id="desktop">
  <path
    fill-rule="evenodd"
    clip-rule="evenodd"
    d="M1 3.25C1 3.11193 1.11193 3 1.25 3H13.75C13.8881 3 14 3.11193 14 3.25V10.75C14 10.8881 13.8881 11 13.75 11H1.25C1.11193 11 1 10.8881 1 10.75V3.25ZM1.25 2C0.559643 2 0 2.55964 0 3.25V10.75C0 11.4404 0.559644 12 1.25 12H5.07341L4.82991 13.2986C4.76645 13.6371 5.02612 13.95 5.37049 13.95H9.62951C9.97389 13.95 10.2336 13.6371 10.1701 13.2986L9.92659 12H13.75C14.4404 12 15 11.4404 15 10.75V3.25C15 2.55964 14.4404 2 13.75 2H1.25ZM9.01091 12H5.98909L5.79222 13.05H9.20778L9.01091 12Z"
    fill="currentColor"
  ></path>
</symbol>
<symbol viewBox="0 0 15 15" fill="none" id="dimensions">
  <path
    fill-rule="evenodd"
    clip-rule="evenodd"
    d="M3.00014 2.73895C3.00014 2.94698 2.76087 3.06401 2.59666 2.93628L1.00386 1.69744C0.875177 1.59735 0.875177 1.40286 1.00386 1.30277L2.59666 0.063928C2.76087 -0.0637944 3.00014 0.0532293 3.00014 0.261266V1.00012H9.00009V0.261296C9.00009 0.0532591 9.23936 -0.0637646 9.40358 0.0639578L10.9964 1.3028C11.1251 1.40289 11.1251 1.59738 10.9964 1.69747L9.40358 2.93631C9.23936 3.06404 9.00009 2.94701 9.00009 2.73898V2.00012H3.00014V2.73895ZM9.50002 4.99998H2.50002C2.22388 4.99998 2.00002 5.22384 2.00002 5.49998V12.5C2.00002 12.7761 2.22388 13 2.50002 13H9.50002C9.77616 13 10 12.7761 10 12.5V5.49998C10 5.22384 9.77616 4.99998 9.50002 4.99998ZM2.50002 3.99998C1.67159 3.99998 1.00002 4.67156 1.00002 5.49998V12.5C1.00002 13.3284 1.67159 14 2.50002 14H9.50002C10.3284 14 11 13.3284 11 12.5V5.49998C11 4.67156 10.3284 3.99998 9.50002 3.99998H2.50002ZM14.7389 6.00001H14V12H14.7389C14.9469 12 15.064 12.2393 14.9362 12.4035L13.6974 13.9963C13.5973 14.125 13.4028 14.125 13.3027 13.9963L12.0639 12.4035C11.9362 12.2393 12.0532 12 12.2612 12H13V6.00001H12.2612C12.0532 6.00001 11.9361 5.76074 12.0639 5.59653L13.3027 4.00373C13.4028 3.87505 13.5973 3.87505 13.6974 4.00374L14.9362 5.59653C15.0639 5.76074 14.9469 6.00001 14.7389 6.00001Z"
    fill="currentColor"
  ></path>
</symbol>
<symbol viewBox="0 0 15 15" fill="none" id="dots-horizontal">
  <path     fill-rule="evenodd"
    clip-rule="evenodd"
    d="M3.625 7.5C3.625 8.12132 3.12132 8.625 2.5 8.625C1.87868 8.625 1.375 8.12132 1.375 7.5C1.375 6.87868 1.87868 6.375 2.5 6.375C3.12132 6.375 3.625 6.87868 3.625 7.5ZM8.625 7.5C8.625 8.12132 8.12132 8.625 7.5 8.625C6.87868 8.625 6.375 8.12132 6.375 7.5C6.375 6.87868 6.87868 6.375 7.5 6.375C8.12132 6.375 8.625 6.87868 8.625 7.5ZM12.5 8.625C13.1213 8.625 13.625 8.12132 13.625 7.5C13.625 6.87868 13.1213 6.375 12.5 6.375C11.8787 6.375 11.375 6.87868 11.375 7.5C11.375 8.12132 11.8787 8.625 12.5 8.625Z"
    fill="currentColor"
  ></path>
</symbol>
<symbol viewBox="0 0 15 15" fill="none" id="download">
  <path     fill-rule="evenodd"
    clip-rule="evenodd"
    d="M7.50005 1.04999C7.74858 1.04999 7.95005 1.25146 7.95005 1.49999V8.41359L10.1819 6.18179C10.3576 6.00605 10.6425 6.00605 10.8182 6.18179C10.994 6.35753 10.994 6.64245 10.8182 6.81819L7.81825 9.81819C7.64251 9.99392 7.35759 9.99392 7.18185 9.81819L4.18185 6.81819C4.00611 6.64245 4.00611 6.35753 4.18185 6.18179C4.35759 6.00605 4.64251 6.00605 4.81825 6.18179L7.05005 8.41359V1.49999C7.05005 1.25146 7.25152 1.04999 7.50005 1.04999ZM2.5 10C2.77614 10 3 10.2239 3 10.5V12C3 12.5539 3.44565 13 3.99635 13H11.0012C11.5529 13 12 12.5528 12 12V10.5C12 10.2239 12.2239 10 12.5 10C12.7761 10 13 10.2239 13 10.5V12C13 13.1041 12.1062 14 11.0012 14H3.99635C2.89019 14 2 13.103 2 12V10.5C2 10.2239 2.22386 10 2.5 10Z"
    fill="currentColor"
  ></path>
</symbol>
<symbol viewBox="0 0 15 15" fill="none" id="enter">
  <path
    fill-rule="evenodd"
    clip-rule="evenodd"
    d="M4.5 1C4.22386 1 4 1.22386 4 1.5C4 1.77614 4.22386 2 4.5 2H12V13H4.5C4.22386 13 4 13.2239 4 13.5C4 13.7761 4.22386 14 4.5 14H12C12.5523 14 13 13.5523 13 13V2C13 1.44772 12.5523 1 12 1H4.5ZM6.60355 4.89645C6.40829 4.70118 6.09171 4.70118 5.89645 4.89645C5.70118 5.09171 5.70118 5.40829 5.89645 5.60355L7.29289 7H0.5C0.223858 7 0 7.22386 0 7.5C0 7.77614 0.223858 8 0.5 8H7.29289L5.89645 9.39645C5.70118 9.59171 5.70118 9.90829 5.89645 10.1036C6.09171 10.2988 6.40829 10.2988 6.60355 10.1036L8.85355 7.85355C9.04882 7.65829 9.04882 7.34171 8.85355 7.14645L6.60355 4.89645Z"
    fill="currentColor"
  ></path>
</symbol>
<symbol viewBox="0 0 15 15" fill="none" id="envelope-closed">
  <path     fill-rule="evenodd"
    clip-rule="evenodd"
    d="M1 2C0.447715 2 0 2.44772 0 3V12C0 12.5523 0.447715 13 1 13H14C14.5523 13 15 12.5523 15 12V3C15 2.44772 14.5523 2 14 2H1ZM1 3L14 3V3.92494C13.9174 3.92486 13.8338 3.94751 13.7589 3.99505L7.5 7.96703L1.24112 3.99505C1.16621 3.94751 1.0826 3.92486 1 3.92494V3ZM1 4.90797V12H14V4.90797L7.74112 8.87995C7.59394 8.97335 7.40606 8.97335 7.25888 8.87995L1 4.90797Z"
    fill="currentColor"
  ></path>
</symbol>
<symbol viewBox="0 0 15 15" fill="none" id="exclamation-triangle">
  <path
    fill-rule="evenodd"
    clip-rule="evenodd"
    d="M8.4449 0.608765C8.0183 -0.107015 6.9817 -0.107015 6.55509 0.608766L0.161178 11.3368C-0.275824 12.07 0.252503 13 1.10608 13H13.8939C14.7475 13 15.2758 12.07 14.8388 11.3368L8.4449 0.608765ZM7.4141 1.12073C7.45288 1.05566 7.54712 1.05566 7.5859 1.12073L13.9798 11.8488C14.0196 11.9154 13.9715 12 13.8939 12H1.10608C1.02849 12 0.980454 11.9154 1.02018 11.8488L7.4141 1.12073ZM6.8269 4.48611C6.81221 4.10423 7.11783 3.78663 7.5 3.78663C7.88217 3.78663 8.18778 4.10423 8.1731 4.48612L8.01921 8.48701C8.00848 8.766 7.7792 8.98664 7.5 8.98664C7.2208 8.98664 6.99151 8.766 6.98078 8.48701L6.8269 4.48611ZM8.24989 10.476C8.24989 10.8902 7.9141 11.226 7.49989 11.226C7.08567 11.226 6.74989 10.8902 6.74989 10.476C6.74989 10.0618 7.08567 9.72599 7.49989 9.72599C7.9141 9.72599 8.24989 10.0618 8.24989 10.476Z"
    fill="currentColor"
  ></path>
</symbol>
<symbol viewBox="0 0 15 15" fill="none" id="exit">
  <path     fill-rule="evenodd"
    clip-rule="evenodd"
    d="M3 1C2.44771 1 2 1.44772 2 2V13C2 13.5523 2.44772 14 3 14H10.5C10.7761 14 11 13.7761 11 13.5C11 13.2239 10.7761 13 10.5 13H3V2L10.5 2C10.7761 2 11 1.77614 11 1.5C11 1.22386 10.7761 1 10.5 1H3ZM12.6036 4.89645C12.4083 4.70118 12.0917 4.70118 11.8964 4.89645C11.7012 5.09171 11.7012 5.40829 11.8964 5.60355L13.2929 7H6.5C6.22386 7 6 7.22386 6 7.5C6 7.77614 6.22386 8 6.5 8H13.2929L11.8964 9.39645C11.7012 9.59171 11.7012 9.90829 11.8964 10.1036C12.0917 10.2988 12.4083 10.2988 12.6036 10.1036L14.8536 7.85355C15.0488 7.65829 15.0488 7.34171 14.8536 7.14645L12.6036 4.89645Z"
    fill="currentColor"
  ></path>
</symbol>
<symbol viewBox="0 0 15 15" fill="none" id="file-text">
  <path     fill-rule="evenodd"
    clip-rule="evenodd"
    d="M3 2.5C3 2.22386 3.22386 2 3.5 2H9.08579C9.21839 2 9.34557 2.05268 9.43934 2.14645L11.8536 4.56066C11.9473 4.65443 12 4.78161 12 4.91421V12.5C12 12.7761 11.7761 13 11.5 13H3.5C3.22386 13 3 12.7761 3 12.5V2.5ZM3.5 1C2.67157 1 2 1.67157 2 2.5V12.5C2 13.3284 2.67157 14 3.5 14H11.5C12.3284 14 13 13.3284 13 12.5V4.91421C13 4.51639 12.842 4.13486 12.5607 3.85355L10.1464 1.43934C9.86514 1.15804 9.48361 1 9.08579 1H3.5ZM4.5 4C4.22386 4 4 4.22386 4 4.5C4 4.77614 4.22386 5 4.5 5H7.5C7.77614 5 8 4.77614 8 4.5C8 4.22386 7.77614 4 7.5 4H4.5ZM4.5 7C4.22386 7 4 7.22386 4 7.5C4 7.77614 4.22386 8 4.5 8H10.5C10.7761 8 11 7.77614 11 7.5C11 7.22386 10.7761 7 10.5 7H4.5ZM4.5 10C4.22386 10 4 10.2239 4 10.5C4 10.7761 4.22386 11 4.5 11H10.5C10.7761 11 11 10.7761 11 10.5C11 10.2239 10.7761 10 10.5 10H4.5Z"
    fill="currentColor"
  ></path>
</symbol>
<symbol viewBox="0 0 15 15" fill="none" id="file">
  <path
    fill-rule="evenodd"
    clip-rule="evenodd"
    d="M3.5 2C3.22386 2 3 2.22386 3 2.5V12.5C3 12.7761 3.22386 13 3.5 13H11.5C11.7761 13 12 12.7761 12 12.5V6H8.5C8.22386 6 8 5.77614 8 5.5V2H3.5ZM9 2.70711L11.2929 5H9V2.70711ZM2 2.5C2 1.67157 2.67157 1 3.5 1H8.5C8.63261 1 8.75979 1.05268 8.85355 1.14645L12.8536 5.14645C12.9473 5.24021 13 5.36739 13 5.5V12.5C13 13.3284 12.3284 14 11.5 14H3.5C2.67157 14 2 13.3284 2 12.5V2.5Z"
    fill="currentColor"
  ></path>
</symbol>
<symbol viewBox="0 0 15 15" fill="none" id="font-bold">
  <path
    d="M5.10505 12C4.70805 12 4.4236 11.912 4.25171 11.736C4.0839 11.5559 4 11.2715 4 10.8827V4.11733C4 3.72033 4.08595 3.43588 4.25784 3.26398C4.43383 3.08799 4.71623 3 5.10505 3C6.42741 3 8.25591 3 9.02852 3C10.1373 3 11.0539 3.98153 11.0539 5.1846C11.0539 6.08501 10.6037 6.81855 9.70327 7.23602C10.8657 7.44851 11.5176 8.62787 11.5176 9.48128C11.5176 10.5125 10.9902 12 9.27734 12C8.77742 12 6.42626 12 5.10505 12ZM8.37891 8.00341H5.8V10.631H8.37891C8.9 10.631 9.6296 10.1211 9.6296 9.29877C9.6296 8.47643 8.9 8.00341 8.37891 8.00341ZM5.8 4.36903V6.69577H8.17969C8.53906 6.69577 9.27734 6.35939 9.27734 5.50002C9.27734 4.64064 8.48047 4.36903 8.17969 4.36903H5.8Z"
    fill="currentColor"
  ></path>
</symbol>
<symbol viewBox="0 0 15 15" fill="none" id="font-size">
  <path
    fill-rule="evenodd"
    clip-rule="evenodd"
    d="M2.78233 2.21707C2.70732 2.14206 2.60557 2.09991 2.49949 2.09991C2.3934 2.09991 2.29166 2.14206 2.21664 2.21707L0.216645 4.21707C0.0604351 4.37328 0.0604351 4.62655 0.216645 4.78276C0.372855 4.93897 0.626121 4.93897 0.78233 4.78276L2.09949 3.4656L2.09949 11.5342L0.78233 10.2171C0.62612 10.0609 0.372854 10.0609 0.216645 10.2171C0.0604349 10.3733 0.0604349 10.6265 0.216645 10.7828L2.21664 12.7828C2.29166 12.8578 2.3934 12.8999 2.49949 12.8999C2.60557 12.8999 2.70731 12.8578 2.78233 12.7828L4.78233 10.7828C4.93854 10.6265 4.93854 10.3733 4.78233 10.2171C4.62612 10.0609 4.37285 10.0609 4.21664 10.2171L2.89949 11.5342L2.89949 3.4656L4.21664 4.78276C4.37285 4.93897 4.62612 4.93897 4.78233 4.78276C4.93854 4.62655 4.93854 4.37328 4.78233 4.21707L2.78233 2.21707ZM10.5 2.74997C10.7107 2.74997 10.8988 2.88211 10.9703 3.08036L13.9703 11.3999C14.064 11.6597 13.9293 11.9462 13.6696 12.0399C13.4098 12.1336 13.1233 11.9989 13.0296 11.7392L12.0477 9.016H8.95228L7.97033 11.7392C7.87666 11.9989 7.59013 12.1336 7.33036 12.0399C7.07059 11.9462 6.93595 11.6597 7.02962 11.3999L10.0296 3.08036C10.1011 2.88211 10.2892 2.74997 10.5 2.74997ZM10.5 4.72396L11.7412 8.166H9.25879L10.5 4.72396Z"
    fill="currentColor"
  ></path>
</symbol>
<symbol viewBox="0 0 15 15" fill="none" id="gear">
  <path
    fill-rule="evenodd"
    clip-rule="evenodd"
    d="M7.07095 0.650238C6.67391 0.650238 6.32977 0.925096 6.24198 1.31231L6.0039 2.36247C5.6249 2.47269 5.26335 2.62363 4.92436 2.81013L4.01335 2.23585C3.67748 2.02413 3.23978 2.07312 2.95903 2.35386L2.35294 2.95996C2.0722 3.2407 2.0232 3.6784 2.23493 4.01427L2.80942 4.92561C2.62307 5.2645 2.47227 5.62594 2.36216 6.00481L1.31209 6.24287C0.924883 6.33065 0.650024 6.6748 0.650024 7.07183V7.92897C0.650024 8.32601 0.924883 8.67015 1.31209 8.75794L2.36228 8.99603C2.47246 9.375 2.62335 9.73652 2.80979 10.0755L2.2354 10.9867C2.02367 11.3225 2.07267 11.7602 2.35341 12.041L2.95951 12.6471C3.24025 12.9278 3.67795 12.9768 4.01382 12.7651L4.92506 12.1907C5.26384 12.377 5.62516 12.5278 6.0039 12.6379L6.24198 13.6881C6.32977 14.0753 6.67391 14.3502 7.07095 14.3502H7.92809C8.32512 14.3502 8.66927 14.0753 8.75705 13.6881L8.99505 12.6383C9.37411 12.5282 9.73573 12.3773 10.0748 12.1909L10.986 12.7653C11.3218 12.977 11.7595 12.928 12.0403 12.6473L12.6464 12.0412C12.9271 11.7604 12.9761 11.3227 12.7644 10.9869L12.1902 10.076C12.3768 9.73688 12.5278 9.37515 12.638 8.99596L13.6879 8.75794C14.0751 8.67015 14.35 8.32601 14.35 7.92897V7.07183C14.35 6.6748 14.0751 6.33065 13.6879 6.24287L12.6381 6.00488C12.528 5.62578 12.3771 5.26414 12.1906 4.92507L12.7648 4.01407C12.9766 3.6782 12.9276 3.2405 12.6468 2.95975L12.0407 2.35366C11.76 2.07292 11.3223 2.02392 10.9864 2.23565L10.0755 2.80989C9.73622 2.62328 9.37437 2.47229 8.99505 2.36209L8.75705 1.31231C8.66927 0.925096 8.32512 0.650238 7.92809 0.650238H7.07095ZM4.92053 3.81251C5.44724 3.44339 6.05665 3.18424 6.71543 3.06839L7.07095 1.50024H7.92809L8.28355 3.06816C8.94267 3.18387 9.5524 3.44302 10.0794 3.81224L11.4397 2.9547L12.0458 3.56079L11.1882 4.92117C11.5573 5.44798 11.8164 6.0575 11.9321 6.71638L13.5 7.07183V7.92897L11.932 8.28444C11.8162 8.94342 11.557 9.55301 11.1878 10.0798L12.0453 11.4402L11.4392 12.0462L10.0787 11.1886C9.55192 11.5576 8.94241 11.8166 8.28355 11.9323L7.92809 13.5002H7.07095L6.71543 11.932C6.0569 11.8162 5.44772 11.5572 4.92116 11.1883L3.56055 12.046L2.95445 11.4399L3.81213 10.0794C3.4431 9.55266 3.18403 8.94326 3.06825 8.2845L1.50002 7.92897V7.07183L3.06818 6.71632C3.18388 6.05765 3.44283 5.44833 3.81171 4.92165L2.95398 3.561L3.56008 2.95491L4.92053 3.81251ZM9.02496 7.50008C9.02496 8.34226 8.34223 9.02499 7.50005 9.02499C6.65786 9.02499 5.97513 8.34226 5.97513 7.50008C5.97513 6.65789 6.65786 5.97516 7.50005 5.97516C8.34223 5.97516 9.02496 6.65789 9.02496 7.50008ZM9.92496 7.50008C9.92496 8.83932 8.83929 9.92499 7.50005 9.92499C6.1608 9.92499 5.07513 8.83932 5.07513 7.50008C5.07513 6.16084 6.1608 5.07516 7.50005 5.07516C8.83929 5.07516 9.92496 6.16084 9.92496 7.50008Z"
    fill="currentColor"
  ></path>
</symbol>
<symbol viewBox="0 0 15 15" fill="none" id="group">
  <path
    fill-rule="evenodd"
    clip-rule="evenodd"
    d="M1.44995 0.949951C1.31734 0.949951 1.19016 1.00263 1.0964 1.0964C1.00263 1.19017 0.949951 1.31735 0.949951 1.44995L0.949966 3.44995C0.949969 3.7261 1.17383 3.94995 1.44997 3.94995C1.72611 3.94995 1.94997 3.72609 1.94997 3.44995L1.94995 1.94995H3.44997C3.72611 1.94995 3.94997 1.72609 3.94997 1.44995C3.94997 1.17381 3.72611 0.949951 3.44997 0.949951H1.44995ZM5.94995 0.949951C5.67381 0.949951 5.44995 1.17381 5.44995 1.44995C5.44995 1.72609 5.67381 1.94995 5.94995 1.94995H8.94995C9.22609 1.94995 9.44995 1.72609 9.44995 1.44995C9.44995 1.17381 9.22609 0.949951 8.94995 0.949951H5.94995ZM5.44995 13.45C5.44995 13.1738 5.67381 12.95 5.94995 12.95H8.94995C9.22609 12.95 9.44995 13.1738 9.44995 13.45C9.44995 13.7261 9.22609 13.95 8.94995 13.95H5.94995C5.67381 13.95 5.44995 13.7261 5.44995 13.45ZM1.94995 5.94995C1.94995 5.67381 1.72609 5.44995 1.44995 5.44995C1.17381 5.44995 0.949951 5.67381 0.949951 5.94995V8.94995C0.949951 9.22609 1.17381 9.44995 1.44995 9.44995C1.72609 9.44995 1.94995 9.22609 1.94995 8.94995V5.94995ZM13.45 5.44995C13.7261 5.44995 13.95 5.67381 13.95 5.94995V8.94995C13.95 9.22609 13.7261 9.44995 13.45 9.44995C13.1738 9.44995 12.95 9.22609 12.95 8.94995V5.94995C12.95 5.67381 13.1738 5.44995 13.45 5.44995ZM11.45 0.949951C11.1738 0.949951 10.95 1.17381 10.95 1.44995C10.95 1.72609 11.1738 1.94995 11.45 1.94995H12.9499V3.44995C12.9499 3.72609 13.1738 3.94995 13.4499 3.94995C13.7261 3.94995 13.9499 3.72609 13.9499 3.44995V1.44995C13.9499 1.17381 13.7252 0.949951 13.449 0.949951H11.45ZM1.44995 10.95C1.72609 10.95 1.94995 11.1738 1.94995 11.45V12.95H3.44997C3.72611 12.95 3.94997 13.1738 3.94997 13.45C3.94997 13.7261 3.72611 13.95 3.44997 13.95H1.44995C1.17381 13.95 0.949951 13.7261 0.949951 13.45V11.45C0.949951 11.1738 1.17381 10.95 1.44995 10.95ZM13.95 11.45C13.95 11.1738 13.7261 10.95 13.45 10.95C13.1738 10.9499 12.95 11.1738 12.95 11.4499L12.9491 12.95H11.45C11.1738 12.95 10.95 13.1738 10.95 13.45C10.95 13.7261 11.1738 13.95 11.45 13.95H13.4499C13.7261 13.95 13.9499 13.7261 13.9499 13.45L13.95 11.45Z"
    fill="currentColor"
  ></path>
</symbol>
<symbol viewBox="0 0 15 15" fill="none" id="hamburger-menu">
  <path
    fill-rule="evenodd"
    clip-rule="evenodd"
    d="M1.5 3C1.22386 3 1 3.22386 1 3.5C1 3.77614 1.22386 4 1.5 4H13.5C13.7761 4 14 3.77614 14 3.5C14 3.22386 13.7761 3 13.5 3H1.5ZM1 7.5C1 7.22386 1.22386 7 1.5 7H13.5C13.7761 7 14 7.22386 14 7.5C14 7.77614 13.7761 8 13.5 8H1.5C1.22386 8 1 7.77614 1 7.5ZM1 11.5C1 11.2239 1.22386 11 1.5 11H13.5C13.7761 11 14 11.2239 14 11.5C14 11.7761 13.7761 12 13.5 12H1.5C1.22386 12 1 11.7761 1 11.5Z"
    fill="currentColor"
  ></path>
</symbol>
<symbol viewBox="0 0 15 15" fill="none" id="heading">
  <path
    fill-rule="evenodd"
    clip-rule="evenodd"
    d="M8.75432 2.0502C8.50579 2.0502 8.30432 2.25167 8.30432 2.5002C8.30432 2.74873 8.50579 2.9502 8.75432 2.9502H9.94997V7.05004H5.04997V2.9502H6.25432C6.50285 2.9502 6.70432 2.74873 6.70432 2.5002C6.70432 2.25167 6.50285 2.0502 6.25432 2.0502H2.75432C2.50579 2.0502 2.30432 2.25167 2.30432 2.5002C2.30432 2.74873 2.50579 2.9502 2.75432 2.9502H3.94997V12.0502H2.75432C2.50579 12.0502 2.30432 12.2517 2.30432 12.5002C2.30432 12.7487 2.50579 12.9502 2.75432 12.9502H6.25432C6.50285 12.9502 6.70432 12.7487 6.70432 12.5002C6.70432 12.2517 6.50285 12.0502 6.25432 12.0502H5.04997V7.95004H9.94997V12.0502H8.75432C8.50579 12.0502 8.30432 12.2517 8.30432 12.5002C8.30432 12.7487 8.50579 12.9502 8.75432 12.9502H12.2543C12.5028 12.9502 12.7043 12.7487 12.7043 12.5002C12.7043 12.2517 12.5028 12.0502 12.2543 12.0502H11.05V2.9502H12.2543C12.5028 2.9502 12.7043 2.74873 12.7043 2.5002C12.7043 2.25167 12.5028 2.0502 12.2543 2.0502H8.75432Z"
    fill="currentColor"
  ></path>
</symbol>
<symbol viewBox="0 0 15 15" fill="none" id="height">
  <path
    fill-rule="evenodd"
    clip-rule="evenodd"
    d="M7.1813 1.68179C7.35704 1.50605 7.64196 1.50605 7.8177 1.68179L10.3177 4.18179C10.4934 4.35753 10.4934 4.64245 10.3177 4.81819C10.142 4.99392 9.85704 4.99392 9.6813 4.81819L7.9495 3.08638L7.9495 11.9136L9.6813 10.1818C9.85704 10.0061 10.142 10.0061 10.3177 10.1818C10.4934 10.3575 10.4934 10.6424 10.3177 10.8182L7.8177 13.3182C7.73331 13.4026 7.61885 13.45 7.4995 13.45C7.38015 13.45 7.26569 13.4026 7.1813 13.3182L4.6813 10.8182C4.50557 10.6424 4.50557 10.3575 4.6813 10.1818C4.85704 10.0061 5.14196 10.0061 5.3177 10.1818L7.0495 11.9136L7.0495 3.08638L5.3177 4.81819C5.14196 4.99392 4.85704 4.99392 4.6813 4.81819C4.50557 4.64245 4.50557 4.35753 4.6813 4.18179L7.1813 1.68179Z"
    fill="currentColor"
  ></path>
</symbol>
<symbol viewBox="0 0 15 15" fill="none" id="home">
  <path
    fill-rule="evenodd"
    clip-rule="evenodd"
    d="M7.07926 0.222253C7.31275 -0.007434 7.6873 -0.007434 7.92079 0.222253L14.6708 6.86227C14.907 7.09465 14.9101 7.47453 14.6778 7.71076C14.4454 7.947 14.0655 7.95012 13.8293 7.71773L13 6.90201V12.5C13 12.7761 12.7762 13 12.5 13H2.50002C2.22388 13 2.00002 12.7761 2.00002 12.5V6.90201L1.17079 7.71773C0.934558 7.95012 0.554672 7.947 0.32229 7.71076C0.0899079 7.47453 0.0930283 7.09465 0.32926 6.86227L7.07926 0.222253ZM7.50002 1.49163L12 5.91831V12H10V8.49999C10 8.22385 9.77617 7.99999 9.50002 7.99999H6.50002C6.22388 7.99999 6.00002 8.22385 6.00002 8.49999V12H3.00002V5.91831L7.50002 1.49163ZM7.00002 12H9.00002V8.99999H7.00002V12Z"
    fill="currentColor"
  ></path>
</symbol>
<symbol viewBox="0 0 15 15" fill="none" id="image">
  <path
    fill-rule="evenodd"
    clip-rule="evenodd"
    d="M2.5 1H12.5C13.3284 1 14 1.67157 14 2.5V12.5C14 13.3284 13.3284 14 12.5 14H2.5C1.67157 14 1 13.3284 1 12.5V2.5C1 1.67157 1.67157 1 2.5 1ZM2.5 2C2.22386 2 2 2.22386 2 2.5V8.3636L3.6818 6.6818C3.76809 6.59551 3.88572 6.54797 4.00774 6.55007C4.12975 6.55216 4.24568 6.60372 4.32895 6.69293L7.87355 10.4901L10.6818 7.6818C10.8575 7.50607 11.1425 7.50607 11.3182 7.6818L13 9.3636V2.5C13 2.22386 12.7761 2 12.5 2H2.5ZM2 12.5V9.6364L3.98887 7.64753L7.5311 11.4421L8.94113 13H2.5C2.22386 13 2 12.7761 2 12.5ZM12.5 13H10.155L8.48336 11.153L11 8.6364L13 10.6364V12.5C13 12.7761 12.7761 13 12.5 13ZM6.64922 5.5C6.64922 5.03013 7.03013 4.64922 7.5 4.64922C7.96987 4.64922 8.35078 5.03013 8.35078 5.5C8.35078 5.96987 7.96987 6.35078 7.5 6.35078C7.03013 6.35078 6.64922 5.96987 6.64922 5.5ZM7.5 3.74922C6.53307 3.74922 5.74922 4.53307 5.74922 5.5C5.74922 6.46693 6.53307 7.25078 7.5 7.25078C8.46693 7.25078 9.25078 6.46693 9.25078 5.5C9.25078 4.53307 8.46693 3.74922 7.5 3.74922Z"
    fill="currentColor"
  ></path>
</symbol>
<symbol viewBox="0 0 15 15" fill="none" id="input">
  <path
    fill-rule="evenodd"
    clip-rule="evenodd"
    d="M6.5 1C6.22386 1 6 1.22386 6 1.5C6 1.77614 6.22386 2 6.5 2C7.12671 2 7.45718 2.20028 7.65563 2.47812C7.8781 2.78957 8 3.28837 8 4V11C8 11.7116 7.8781 12.2104 7.65563 12.5219C7.45718 12.7997 7.12671 13 6.5 13C6.22386 13 6 13.2239 6 13.5C6 13.7761 6.22386 14 6.5 14C7.37329 14 8.04282 13.7003 8.46937 13.1031C8.47976 13.0886 8.48997 13.0739 8.5 13.0591C8.51003 13.0739 8.52024 13.0886 8.53063 13.1031C8.95718 13.7003 9.62671 14 10.5 14C10.7761 14 11 13.7761 11 13.5C11 13.2239 10.7761 13 10.5 13C9.87329 13 9.54282 12.7997 9.34437 12.5219C9.1219 12.2104 9 11.7116 9 11V4C9 3.28837 9.1219 2.78957 9.34437 2.47812C9.54282 2.20028 9.87329 2 10.5 2C10.7761 2 11 1.77614 11 1.5C11 1.22386 10.7761 1 10.5 1C9.62671 1 8.95718 1.29972 8.53063 1.89688C8.52024 1.91143 8.51003 1.92611 8.5 1.9409C8.48997 1.92611 8.47976 1.91143 8.46937 1.89688C8.04282 1.29972 7.37329 1 6.5 1ZM14 5H11V4H14C14.5523 4 15 4.44772 15 5V10C15 10.5523 14.5523 11 14 11H11V10H14V5ZM6 4V5H1L1 10H6V11H1C0.447715 11 0 10.5523 0 10V5C0 4.44772 0.447715 4 1 4H6Z"
    fill="currentColor"
  ></path>
</symbol>
<symbol viewBox="0 0 15 15" fill="none" id="laptop">
  <path     fill-rule="evenodd"
    clip-rule="evenodd"
    d="M2 4.25C2 4.11193 2.11193 4 2.25 4H12.75C12.8881 4 13 4.11193 13 4.25V11.5H2V4.25ZM2.25 3C1.55964 3 1 3.55964 1 4.25V12H0V12.5C0 12.7761 0.223858 13 0.5 13H14.5C14.7761 13 15 12.7761 15 12.5V12H14V4.25C14 3.55964 13.4404 3 12.75 3H2.25Z"
    fill="currentColor"
  ></path>
</symbol>
<symbol viewBox="0 0 15 15" fill="none" id="link-2">
  <path     fill-rule="evenodd"
    clip-rule="evenodd"
    d="M8.51194 3.00541C9.18829 2.54594 10.0435 2.53694 10.6788 2.95419C10.8231 3.04893 10.9771 3.1993 11.389 3.61119C11.8009 4.02307 11.9513 4.17714 12.046 4.32141C12.4633 4.95675 12.4543 5.81192 11.9948 6.48827C11.8899 6.64264 11.7276 6.80811 11.3006 7.23511L10.6819 7.85383C10.4867 8.04909 10.4867 8.36567 10.6819 8.56093C10.8772 8.7562 11.1938 8.7562 11.389 8.56093L12.0077 7.94221L12.0507 7.89929C12.4203 7.52976 12.6568 7.2933 12.822 7.0502C13.4972 6.05623 13.5321 4.76252 12.8819 3.77248C12.7233 3.53102 12.4922 3.30001 12.1408 2.94871L12.0961 2.90408L12.0515 2.85942C11.7002 2.508 11.4692 2.27689 11.2277 2.11832C10.2377 1.46813 8.94398 1.50299 7.95001 2.17822C7.70691 2.34336 7.47044 2.57991 7.1009 2.94955L7.058 2.99247L6.43928 3.61119C6.24401 3.80645 6.24401 4.12303 6.43928 4.31829C6.63454 4.51355 6.95112 4.51355 7.14638 4.31829L7.7651 3.69957C8.1921 3.27257 8.35757 3.11027 8.51194 3.00541ZM4.31796 7.14672C4.51322 6.95146 4.51322 6.63487 4.31796 6.43961C4.12269 6.24435 3.80611 6.24435 3.61085 6.43961L2.99213 7.05833L2.94922 7.10124C2.57957 7.47077 2.34303 7.70724 2.17788 7.95035C1.50265 8.94432 1.4678 10.238 2.11799 11.2281C2.27656 11.4695 2.50766 11.7005 2.8591 12.0518L2.90374 12.0965L2.94837 12.1411C3.29967 12.4925 3.53068 12.7237 3.77214 12.8822C4.76219 13.5324 6.05589 13.4976 7.04986 12.8223C7.29296 12.6572 7.52943 12.4206 7.89896 12.051L7.89897 12.051L7.94188 12.0081L8.5606 11.3894C8.75586 11.1941 8.75586 10.8775 8.5606 10.6823C8.36533 10.487 8.04875 10.487 7.85349 10.6823L7.23477 11.301C6.80777 11.728 6.6423 11.8903 6.48794 11.9951C5.81158 12.4546 4.95642 12.4636 4.32107 12.0464C4.17681 11.9516 4.02274 11.8012 3.61085 11.3894C3.19896 10.9775 3.0486 10.8234 2.95385 10.6791C2.53661 10.0438 2.54561 9.18863 3.00507 8.51227C3.10993 8.35791 3.27224 8.19244 3.69924 7.76544L4.31796 7.14672ZM9.62172 6.08558C9.81698 5.89032 9.81698 5.57373 9.62172 5.37847C9.42646 5.18321 9.10988 5.18321 8.91461 5.37847L5.37908 8.91401C5.18382 9.10927 5.18382 9.42585 5.37908 9.62111C5.57434 9.81637 5.89092 9.81637 6.08619 9.62111L9.62172 6.08558Z"
    fill="currentColor"
  ></path>
</symbol>
<symbol viewBox="0 0 15 15" fill="none" id="list-bullet">
  <path
    fill-rule="evenodd"
    clip-rule="evenodd"
    d="M1.5 5.25C1.91421 5.25 2.25 4.91421 2.25 4.5C2.25 4.08579 1.91421 3.75 1.5 3.75C1.08579 3.75 0.75 4.08579 0.75 4.5C0.75 4.91421 1.08579 5.25 1.5 5.25ZM4 4.5C4 4.22386 4.22386 4 4.5 4H13.5C13.7761 4 14 4.22386 14 4.5C14 4.77614 13.7761 5 13.5 5H4.5C4.22386 5 4 4.77614 4 4.5ZM4.5 7C4.22386 7 4 7.22386 4 7.5C4 7.77614 4.22386 8 4.5 8H13.5C13.7761 8 14 7.77614 14 7.5C14 7.22386 13.7761 7 13.5 7H4.5ZM4.5 10C4.22386 10 4 10.2239 4 10.5C4 10.7761 4.22386 11 4.5 11H13.5C13.7761 11 14 10.7761 14 10.5C14 10.2239 13.7761 10 13.5 10H4.5ZM2.25 7.5C2.25 7.91421 1.91421 8.25 1.5 8.25C1.08579 8.25 0.75 7.91421 0.75 7.5C0.75 7.08579 1.08579 6.75 1.5 6.75C1.91421 6.75 2.25 7.08579 2.25 7.5ZM1.5 11.25C1.91421 11.25 2.25 10.9142 2.25 10.5C2.25 10.0858 1.91421 9.75 1.5 9.75C1.08579 9.75 0.75 10.0858 0.75 10.5C0.75 10.9142 1.08579 11.25 1.5 11.25Z"
    fill="currentColor"
  ></path>
</symbol>
<symbol viewBox="0 0 15 15" fill="none" id="lock-closed">
  <path     fill-rule="evenodd"
    clip-rule="evenodd"
    d="M5 4.63601C5 3.76031 5.24219 3.1054 5.64323 2.67357C6.03934 2.24705 6.64582 1.9783 7.5014 1.9783C8.35745 1.9783 8.96306 2.24652 9.35823 2.67208C9.75838 3.10299 10 3.75708 10 4.63325V5.99999H5V4.63601ZM4 5.99999V4.63601C4 3.58148 4.29339 2.65754 4.91049 1.99307C5.53252 1.32329 6.42675 0.978302 7.5014 0.978302C8.57583 0.978302 9.46952 1.32233 10.091 1.99162C10.7076 2.65557 11 3.57896 11 4.63325V5.99999H12C12.5523 5.99999 13 6.44771 13 6.99999V13C13 13.5523 12.5523 14 12 14H3C2.44772 14 2 13.5523 2 13V6.99999C2 6.44771 2.44772 5.99999 3 5.99999H4ZM3 6.99999H12V13H3V6.99999Z"
    fill="currentColor"
  ></path>
</symbol>
<symbol viewBox="0 0 15 15" fill="none" id="lock-open-1">
  <path     fill-rule="evenodd"
    clip-rule="evenodd"
    d="M7.4986 0C6.3257 0 5.36107 0.38943 4.73753 1.19361C4.23745 1.83856 4 2.68242 4 3.63325H5C5 2.84313 5.19691 2.23312 5.5278 1.80636C5.91615 1.30552 6.55152 1 7.4986 1C8.35683 1 8.96336 1.26502 9.35846 1.68623C9.75793 2.11211 10 2.76044 10 3.63601V6H3C2.44772 6 2 6.44772 2 7V13C2 13.5523 2.44772 14 3 14H12C12.5523 14 13 13.5523 13 13V7C13 6.44771 12.5523 6 12 6H11V3.63601C11 2.58135 10.7065 1.66167 10.0878 1.0021C9.46477 0.337871 8.57061 0 7.4986 0ZM3 7H12V13H3V7Z"
    fill="currentColor"
  ></path>
</symbol>
<symbol viewBox="0 0 15 15" fill="none" id="magic-wand">
  <path
    fill-rule="evenodd"
    clip-rule="evenodd"
    d="M13.9 0.499976C13.9 0.279062 13.7209 0.0999756 13.5 0.0999756C13.2791 0.0999756 13.1 0.279062 13.1 0.499976V1.09998H12.5C12.2791 1.09998 12.1 1.27906 12.1 1.49998C12.1 1.72089 12.2791 1.89998 12.5 1.89998H13.1V2.49998C13.1 2.72089 13.2791 2.89998 13.5 2.89998C13.7209 2.89998 13.9 2.72089 13.9 2.49998V1.89998H14.5C14.7209 1.89998 14.9 1.72089 14.9 1.49998C14.9 1.27906 14.7209 1.09998 14.5 1.09998H13.9V0.499976ZM11.8536 3.14642C12.0488 3.34168 12.0488 3.65826 11.8536 3.85353L10.8536 4.85353C10.6583 5.04879 10.3417 5.04879 10.1465 4.85353C9.9512 4.65827 9.9512 4.34169 10.1465 4.14642L11.1464 3.14643C11.3417 2.95116 11.6583 2.95116 11.8536 3.14642ZM9.85357 5.14642C10.0488 5.34168 10.0488 5.65827 9.85357 5.85353L2.85355 12.8535C2.65829 13.0488 2.34171 13.0488 2.14645 12.8535C1.95118 12.6583 1.95118 12.3417 2.14645 12.1464L9.14646 5.14642C9.34172 4.95116 9.65831 4.95116 9.85357 5.14642ZM13.5 5.09998C13.7209 5.09998 13.9 5.27906 13.9 5.49998V6.09998H14.5C14.7209 6.09998 14.9 6.27906 14.9 6.49998C14.9 6.72089 14.7209 6.89998 14.5 6.89998H13.9V7.49998C13.9 7.72089 13.7209 7.89998 13.5 7.89998C13.2791 7.89998 13.1 7.72089 13.1 7.49998V6.89998H12.5C12.2791 6.89998 12.1 6.72089 12.1 6.49998C12.1 6.27906 12.2791 6.09998 12.5 6.09998H13.1V5.49998C13.1 5.27906 13.2791 5.09998 13.5 5.09998ZM8.90002 0.499976C8.90002 0.279062 8.72093 0.0999756 8.50002 0.0999756C8.2791 0.0999756 8.10002 0.279062 8.10002 0.499976V1.09998H7.50002C7.2791 1.09998 7.10002 1.27906 7.10002 1.49998C7.10002 1.72089 7.2791 1.89998 7.50002 1.89998H8.10002V2.49998C8.10002 2.72089 8.2791 2.89998 8.50002 2.89998C8.72093 2.89998 8.90002 2.72089 8.90002 2.49998V1.89998H9.50002C9.72093 1.89998 9.90002 1.72089 9.90002 1.49998C9.90002 1.27906 9.72093 1.09998 9.50002 1.09998H8.90002V0.499976Z"
    fill="currentColor"
  ></path>
</symbol>
<symbol viewBox="0 0 15 15" fill="none" id="magnifying-glass">
  <path     fill-rule="evenodd"
    clip-rule="evenodd"
    d="M10 6.5C10 8.433 8.433 10 6.5 10C4.567 10 3 8.433 3 6.5C3 4.567 4.567 3 6.5 3C8.433 3 10 4.567 10 6.5ZM9.30884 10.0159C8.53901 10.6318 7.56251 11 6.5 11C4.01472 11 2 8.98528 2 6.5C2 4.01472 4.01472 2 6.5 2C8.98528 2 11 4.01472 11 6.5C11 7.56251 10.6318 8.53901 10.0159 9.30884L12.8536 12.1464C13.0488 12.3417 13.0488 12.6583 12.8536 12.8536C12.6583 13.0488 12.3417 13.0488 12.1464 12.8536L9.30884 10.0159Z"
    fill="currentColor"
  ></path>
</symbol>
<symbol viewBox="0 0 1024 1024" id="mal-logo">
  <defs></defs>
  <circle cx="512" cy="512" r="512" style="fill:#2e51a2"></circle>
  <path d="M432.49 410.61V590.3l-44.86-.06V479l-43.31 51.29-42.43-52.44-.43 112.75H256V410.65h47l39.79 54.29 43-54.31zm184.06 44.14.53 135.15h-50.45l-.17-61.25h-59.73c1.49 10.65 4.48 27 8.9 38 3.31 8.13 6.36 16 12.44 24.06l-36.37 24c-7.45-13.57-13.27-28.52-18.73-44.42a198.31 198.31 0 0 1-10.82-46.49c-1.81-16-2.07-31.38 2.28-47.19a83.37 83.37 0 0 1 24.77-39.81c6.68-6.25 16-10.67 23.47-14.66s15.85-5.63 23.62-7.66a158 158 0 0 1 25.41-3.9c8.49-.73 23.62-1.41 51-.6l11.63 37.31h-58.78c-12.65.17-18.73 0-28.61 4.46a47.7 47.7 0 0 0-27.26 41l56.81.7.81-38.61h49.26zM701.72 410v141.35L768 552l-9.17 37.87H656.28V409.33z" style="fill:#fff"></path>
</symbol>
<symbol viewBox="0 0 15 15" fill="none" id="mixer-horizontal">
  <path
    fill-rule="evenodd"
    clip-rule="evenodd"
    d="M5.5 3C4.67157 3 4 3.67157 4 4.5C4 5.32843 4.67157 6 5.5 6C6.32843 6 7 5.32843 7 4.5C7 3.67157 6.32843 3 5.5 3ZM3 5C3.01671 5 3.03323 4.99918 3.04952 4.99758C3.28022 6.1399 4.28967 7 5.5 7C6.71033 7 7.71978 6.1399 7.95048 4.99758C7.96677 4.99918 7.98329 5 8 5H13.5C13.7761 5 14 4.77614 14 4.5C14 4.22386 13.7761 4 13.5 4H8C7.98329 4 7.96677 4.00082 7.95048 4.00242C7.71978 2.86009 6.71033 2 5.5 2C4.28967 2 3.28022 2.86009 3.04952 4.00242C3.03323 4.00082 3.01671 4 3 4H1.5C1.22386 4 1 4.22386 1 4.5C1 4.77614 1.22386 5 1.5 5H3ZM11.9505 10.9976C11.7198 12.1399 10.7103 13 9.5 13C8.28967 13 7.28022 12.1399 7.04952 10.9976C7.03323 10.9992 7.01671 11 7 11H1.5C1.22386 11 1 10.7761 1 10.5C1 10.2239 1.22386 10 1.5 10H7C7.01671 10 7.03323 10.0008 7.04952 10.0024C7.28022 8.8601 8.28967 8 9.5 8C10.7103 8 11.7198 8.8601 11.9505 10.0024C11.9668 10.0008 11.9833 10 12 10H13.5C13.7761 10 14 10.2239 14 10.5C14 10.7761 13.7761 11 13.5 11H12C11.9833 11 11.9668 10.9992 11.9505 10.9976ZM8 10.5C8 9.67157 8.67157 9 9.5 9C10.3284 9 11 9.67157 11 10.5C11 11.3284 10.3284 12 9.5 12C8.67157 12 8 11.3284 8 10.5Z"
    fill="currentColor"
  ></path>
</symbol>
<symbol viewBox="0 0 15 15" fill="none" id="mobile">
  <path
    fill-rule="evenodd"
    clip-rule="evenodd"
    d="M4 2.5C4 2.22386 4.22386 2 4.5 2H10.5C10.7761 2 11 2.22386 11 2.5V12.5C11 12.7761 10.7761 13 10.5 13H4.5C4.22386 13 4 12.7761 4 12.5V2.5ZM4.5 1C3.67157 1 3 1.67157 3 2.5V12.5C3 13.3284 3.67157 14 4.5 14H10.5C11.3284 14 12 13.3284 12 12.5V2.5C12 1.67157 11.3284 1 10.5 1H4.5ZM6 11.65C5.8067 11.65 5.65 11.8067 5.65 12C5.65 12.1933 5.8067 12.35 6 12.35H9C9.1933 12.35 9.35 12.1933 9.35 12C9.35 11.8067 9.1933 11.65 9 11.65H6Z"
    fill="currentColor"
  ></path>
</symbol>
<symbol viewBox="0 0 15 15" fill="none" id="moon">
  <path     fill-rule="evenodd"
    clip-rule="evenodd"
    d="M2.89998 0.499976C2.89998 0.279062 2.72089 0.0999756 2.49998 0.0999756C2.27906 0.0999756 2.09998 0.279062 2.09998 0.499976V1.09998H1.49998C1.27906 1.09998 1.09998 1.27906 1.09998 1.49998C1.09998 1.72089 1.27906 1.89998 1.49998 1.89998H2.09998V2.49998C2.09998 2.72089 2.27906 2.89998 2.49998 2.89998C2.72089 2.89998 2.89998 2.72089 2.89998 2.49998V1.89998H3.49998C3.72089 1.89998 3.89998 1.72089 3.89998 1.49998C3.89998 1.27906 3.72089 1.09998 3.49998 1.09998H2.89998V0.499976ZM5.89998 3.49998C5.89998 3.27906 5.72089 3.09998 5.49998 3.09998C5.27906 3.09998 5.09998 3.27906 5.09998 3.49998V4.09998H4.49998C4.27906 4.09998 4.09998 4.27906 4.09998 4.49998C4.09998 4.72089 4.27906 4.89998 4.49998 4.89998H5.09998V5.49998C5.09998 5.72089 5.27906 5.89998 5.49998 5.89998C5.72089 5.89998 5.89998 5.72089 5.89998 5.49998V4.89998H6.49998C6.72089 4.89998 6.89998 4.72089 6.89998 4.49998C6.89998 4.27906 6.72089 4.09998 6.49998 4.09998H5.89998V3.49998ZM1.89998 6.49998C1.89998 6.27906 1.72089 6.09998 1.49998 6.09998C1.27906 6.09998 1.09998 6.27906 1.09998 6.49998V7.09998H0.499976C0.279062 7.09998 0.0999756 7.27906 0.0999756 7.49998C0.0999756 7.72089 0.279062 7.89998 0.499976 7.89998H1.09998V8.49998C1.09998 8.72089 1.27906 8.89997 1.49998 8.89997C1.72089 8.89997 1.89998 8.72089 1.89998 8.49998V7.89998H2.49998C2.72089 7.89998 2.89998 7.72089 2.89998 7.49998C2.89998 7.27906 2.72089 7.09998 2.49998 7.09998H1.89998V6.49998ZM8.54406 0.98184L8.24618 0.941586C8.03275 0.917676 7.90692 1.1655 8.02936 1.34194C8.17013 1.54479 8.29981 1.75592 8.41754 1.97445C8.91878 2.90485 9.20322 3.96932 9.20322 5.10022C9.20322 8.37201 6.82247 11.0878 3.69887 11.6097C3.45736 11.65 3.20988 11.6772 2.96008 11.6906C2.74563 11.702 2.62729 11.9535 2.77721 12.1072C2.84551 12.1773 2.91535 12.2458 2.98667 12.3128L3.05883 12.3795L3.31883 12.6045L3.50684 12.7532L3.62796 12.8433L3.81491 12.9742L3.99079 13.089C4.11175 13.1651 4.23536 13.2375 4.36157 13.3059L4.62496 13.4412L4.88553 13.5607L5.18837 13.6828L5.43169 13.7686C5.56564 13.8128 5.70149 13.8529 5.83857 13.8885C5.94262 13.9155 6.04767 13.9401 6.15405 13.9622C6.27993 13.9883 6.40713 14.0109 6.53544 14.0298L6.85241 14.0685L7.11934 14.0892C7.24637 14.0965 7.37436 14.1002 7.50322 14.1002C11.1483 14.1002 14.1032 11.1453 14.1032 7.50023C14.1032 7.25044 14.0893 7.00389 14.0623 6.76131L14.0255 6.48407C13.991 6.26083 13.9453 6.04129 13.8891 5.82642C13.8213 5.56709 13.7382 5.31398 13.6409 5.06881L13.5279 4.80132L13.4507 4.63542L13.3766 4.48666C13.2178 4.17773 13.0353 3.88295 12.8312 3.60423L12.6782 3.40352L12.4793 3.16432L12.3157 2.98361L12.1961 2.85951L12.0355 2.70246L11.8134 2.50184L11.4925 2.24191L11.2483 2.06498L10.9562 1.87446L10.6346 1.68894L10.3073 1.52378L10.1938 1.47176L9.95488 1.3706L9.67791 1.2669L9.42566 1.1846L9.10075 1.09489L8.83599 1.03486L8.54406 0.98184ZM10.4032 5.30023C10.4032 4.27588 10.2002 3.29829 9.83244 2.40604C11.7623 3.28995 13.1032 5.23862 13.1032 7.50023C13.1032 10.593 10.596 13.1002 7.50322 13.1002C6.63646 13.1002 5.81597 12.9036 5.08355 12.5522C6.5419 12.0941 7.81081 11.2082 8.74322 10.0416C8.87963 10.2284 9.10028 10.3497 9.34928 10.3497C9.76349 10.3497 10.0993 10.0139 10.0993 9.59971C10.0993 9.24256 9.84965 8.94373 9.51535 8.86816C9.57741 8.75165 9.63653 8.63334 9.6926 8.51332C9.88358 8.63163 10.1088 8.69993 10.35 8.69993C11.0403 8.69993 11.6 8.14028 11.6 7.44993C11.6 6.75976 11.0406 6.20024 10.3505 6.19993C10.3853 5.90487 10.4032 5.60464 10.4032 5.30023Z"
    fill="currentColor"
  ></path>
</symbol>
<symbol viewBox="0 0 15 15" fill="none" id="move">
  <path
    fill-rule="evenodd"
    clip-rule="evenodd"
    d="M7.81819 0.93179C7.64245 0.756054 7.35753 0.756054 7.18179 0.93179L5.43179 2.68179C5.25605 2.85753 5.25605 3.14245 5.43179 3.31819C5.60753 3.49392 5.89245 3.49392 6.06819 3.31819L6.99999 2.38638V5.49999C6.99999 5.77613 7.22385 5.99999 7.49999 5.99999C7.77613 5.99999 7.99999 5.77613 7.99999 5.49999V2.38638L8.93179 3.31819C9.10753 3.49392 9.39245 3.49392 9.56819 3.31819C9.74392 3.14245 9.74392 2.85753 9.56819 2.68179L7.81819 0.93179ZM7.99999 9.49999C7.99999 9.22385 7.77613 8.99999 7.49999 8.99999C7.22385 8.99999 6.99999 9.22385 6.99999 9.49999V12.6136L6.06819 11.6818C5.89245 11.5061 5.60753 11.5061 5.43179 11.6818C5.25605 11.8575 5.25605 12.1424 5.43179 12.3182L7.18179 14.0682C7.35753 14.2439 7.64245 14.2439 7.81819 14.0682L9.56819 12.3182C9.74392 12.1424 9.74392 11.8575 9.56819 11.6818C9.39245 11.5061 9.10753 11.5061 8.93179 11.6818L7.99999 12.6136V9.49999ZM8.99999 7.49999C8.99999 7.22385 9.22385 6.99999 9.49999 6.99999H12.6136L11.6818 6.06819C11.5061 5.89245 11.5061 5.60753 11.6818 5.43179C11.8575 5.25605 12.1424 5.25605 12.3182 5.43179L14.0682 7.18179C14.2439 7.35753 14.2439 7.64245 14.0682 7.81819L12.3182 9.56819C12.1424 9.74392 11.8575 9.74392 11.6818 9.56819C11.5061 9.39245 11.5061 9.10753 11.6818 8.93179L12.6136 7.99999H9.49999C9.22385 7.99999 8.99999 7.77613 8.99999 7.49999ZM3.31819 6.06819L2.38638 6.99999H5.49999C5.77613 6.99999 5.99999 7.22385 5.99999 7.49999C5.99999 7.77613 5.77613 7.99999 5.49999 7.99999H2.38638L3.31819 8.93179C3.49392 9.10753 3.49392 9.39245 3.31819 9.56819C3.14245 9.74392 2.85753 9.74392 2.68179 9.56819L0.93179 7.81819C0.756054 7.64245 0.756054 7.35753 0.93179 7.18179L2.68179 5.43179C2.85753 5.25605 3.14245 5.25605 3.31819 5.43179C3.49392 5.60753 3.49392 5.89245 3.31819 6.06819Z"
    fill="currentColor"
  ></path>
</symbol>
<symbol viewBox="0 0 15 15" fill="none" id="paper-plane">
  <path
    fill-rule="evenodd"
    clip-rule="evenodd"
    d="M1.20308 1.04312C1.00481 0.954998 0.772341 1.0048 0.627577 1.16641C0.482813 1.32802 0.458794 1.56455 0.568117 1.75196L3.92115 7.50002L0.568117 13.2481C0.458794 13.4355 0.482813 13.672 0.627577 13.8336C0.772341 13.9952 1.00481 14.045 1.20308 13.9569L14.7031 7.95693C14.8836 7.87668 15 7.69762 15 7.50002C15 7.30243 14.8836 7.12337 14.7031 7.04312L1.20308 1.04312ZM4.84553 7.10002L2.21234 2.586L13.2689 7.50002L2.21234 12.414L4.84552 7.90002H9C9.22092 7.90002 9.4 7.72094 9.4 7.50002C9.4 7.27911 9.22092 7.10002 9 7.10002H4.84553Z"
    fill="currentColor"
  ></path>
</symbol>
<symbol viewBox="0 0 15 15" fill="none" id="pencil-1">
  <path     fill-rule="evenodd"
    clip-rule="evenodd"
    d="M11.8536 1.14645C11.6583 0.951184 11.3417 0.951184 11.1465 1.14645L3.71455 8.57836C3.62459 8.66832 3.55263 8.77461 3.50251 8.89155L2.04044 12.303C1.9599 12.491 2.00189 12.709 2.14646 12.8536C2.29103 12.9981 2.50905 13.0401 2.69697 12.9596L6.10847 11.4975C6.2254 11.4474 6.3317 11.3754 6.42166 11.2855L13.8536 3.85355C14.0488 3.65829 14.0488 3.34171 13.8536 3.14645L11.8536 1.14645ZM4.42166 9.28547L11.5 2.20711L12.7929 3.5L5.71455 10.5784L4.21924 11.2192L3.78081 10.7808L4.42166 9.28547Z"
    fill="currentColor"
  ></path>
</symbol>
<symbol viewBox="0 0 15 15" fill="none" id="person">
  <path
    fill-rule="evenodd"
    clip-rule="evenodd"
    d="M7.5 0.875C5.49797 0.875 3.875 2.49797 3.875 4.5C3.875 6.15288 4.98124 7.54738 6.49373 7.98351C5.2997 8.12901 4.27557 8.55134 3.50407 9.31167C2.52216 10.2794 2.02502 11.72 2.02502 13.5999C2.02502 13.8623 2.23769 14.0749 2.50002 14.0749C2.76236 14.0749 2.97502 13.8623 2.97502 13.5999C2.97502 11.8799 3.42786 10.7206 4.17091 9.9883C4.91536 9.25463 6.02674 8.87499 7.49995 8.87499C8.97317 8.87499 10.0846 9.25463 10.8291 9.98831C11.5721 10.7206 12.025 11.8799 12.025 13.5999C12.025 13.8623 12.2376 14.0749 12.5 14.0749C12.7623 14.075 12.975 13.8623 12.975 13.6C12.975 11.72 12.4778 10.2794 11.4959 9.31166C10.7244 8.55135 9.70025 8.12903 8.50625 7.98352C10.0187 7.5474 11.125 6.15289 11.125 4.5C11.125 2.49797 9.50203 0.875 7.5 0.875ZM4.825 4.5C4.825 3.02264 6.02264 1.825 7.5 1.825C8.97736 1.825 10.175 3.02264 10.175 4.5C10.175 5.97736 8.97736 7.175 7.5 7.175C6.02264 7.175 4.825 5.97736 4.825 4.5Z"
    fill="currentColor"
  ></path>
</symbol>
<symbol viewBox="0 0 15 15" fill="none" id="plus">
  <path     fill-rule="evenodd"
    clip-rule="evenodd"
    d="M8 2.75C8 2.47386 7.77614 2.25 7.5 2.25C7.22386 2.25 7 2.47386 7 2.75V7H2.75C2.47386 7 2.25 7.22386 2.25 7.5C2.25 7.77614 2.47386 8 2.75 8H7V12.25C7 12.5261 7.22386 12.75 7.5 12.75C7.77614 12.75 8 12.5261 8 12.25V8H12.25C12.5261 8 12.75 7.77614 12.75 7.5C12.75 7.22386 12.5261 7 12.25 7H8V2.75Z"
    fill="currentColor"
  ></path>
</symbol>
<symbol viewBox="0 0 15 15" fill="none" id="question-mark-circled">
  <path     fill-rule="evenodd"
    clip-rule="evenodd"
    d="M0.877075 7.49972C0.877075 3.84204 3.84222 0.876892 7.49991 0.876892C11.1576 0.876892 14.1227 3.84204 14.1227 7.49972C14.1227 11.1574 11.1576 14.1226 7.49991 14.1226C3.84222 14.1226 0.877075 11.1574 0.877075 7.49972ZM7.49991 1.82689C4.36689 1.82689 1.82708 4.36671 1.82708 7.49972C1.82708 10.6327 4.36689 13.1726 7.49991 13.1726C10.6329 13.1726 13.1727 10.6327 13.1727 7.49972C13.1727 4.36671 10.6329 1.82689 7.49991 1.82689ZM8.24993 10.5C8.24993 10.9142 7.91414 11.25 7.49993 11.25C7.08571 11.25 6.74993 10.9142 6.74993 10.5C6.74993 10.0858 7.08571 9.75 7.49993 9.75C7.91414 9.75 8.24993 10.0858 8.24993 10.5ZM6.05003 6.25C6.05003 5.57211 6.63511 4.925 7.50003 4.925C8.36496 4.925 8.95003 5.57211 8.95003 6.25C8.95003 6.74118 8.68002 6.99212 8.21447 7.27494C8.16251 7.30651 8.10258 7.34131 8.03847 7.37854L8.03841 7.37858C7.85521 7.48497 7.63788 7.61119 7.47449 7.73849C7.23214 7.92732 6.95003 8.23198 6.95003 8.7C6.95004 9.00376 7.19628 9.25 7.50004 9.25C7.8024 9.25 8.04778 9.00601 8.05002 8.70417L8.05056 8.7033C8.05924 8.6896 8.08493 8.65735 8.15058 8.6062C8.25207 8.52712 8.36508 8.46163 8.51567 8.37436L8.51571 8.37433C8.59422 8.32883 8.68296 8.27741 8.78559 8.21506C9.32004 7.89038 10.05 7.35382 10.05 6.25C10.05 4.92789 8.93511 3.825 7.50003 3.825C6.06496 3.825 4.95003 4.92789 4.95003 6.25C4.95003 6.55376 5.19628 6.8 5.50003 6.8C5.80379 6.8 6.05003 6.55376 6.05003 6.25Z"
    fill="currentColor"
  ></path>
</symbol>
<symbol viewBox="0 0 15 15" fill="none" id="quote">
  <path
    fill-rule="evenodd"
    clip-rule="evenodd"
    d="M9.42503 3.44136C10.0561 3.23654 10.7837 3.2402 11.3792 3.54623C12.7532 4.25224 13.3477 6.07191 12.7946 8C12.5465 8.8649 12.1102 9.70472 11.1861 10.5524C10.262 11.4 8.98034 11.9 8.38571 11.9C8.17269 11.9 8 11.7321 8 11.525C8 11.3179 8.17644 11.15 8.38571 11.15C9.06497 11.15 9.67189 10.7804 10.3906 10.236C10.9406 9.8193 11.3701 9.28633 11.608 8.82191C12.0628 7.93367 12.0782 6.68174 11.3433 6.34901C10.9904 6.73455 10.5295 6.95946 9.97725 6.95946C8.7773 6.95946 8.0701 5.99412 8.10051 5.12009C8.12957 4.28474 8.66032 3.68954 9.42503 3.44136ZM3.42503 3.44136C4.05614 3.23654 4.78366 3.2402 5.37923 3.54623C6.7532 4.25224 7.34766 6.07191 6.79462 8C6.54654 8.8649 6.11019 9.70472 5.1861 10.5524C4.26201 11.4 2.98034 11.9 2.38571 11.9C2.17269 11.9 2 11.7321 2 11.525C2 11.3179 2.17644 11.15 2.38571 11.15C3.06497 11.15 3.67189 10.7804 4.39058 10.236C4.94065 9.8193 5.37014 9.28633 5.60797 8.82191C6.06282 7.93367 6.07821 6.68174 5.3433 6.34901C4.99037 6.73455 4.52948 6.95946 3.97725 6.95946C2.7773 6.95946 2.0701 5.99412 2.10051 5.12009C2.12957 4.28474 2.66032 3.68954 3.42503 3.44136Z"
    fill="currentColor"
  ></path>
</symbol>
<symbol viewBox="0 0 15 15" fill="none" id="reader">
  <path
    fill-rule="evenodd"
    clip-rule="evenodd"
    d="M4.2 1H4.17741H4.1774C3.86936 0.999988 3.60368 0.999978 3.38609 1.02067C3.15576 1.04257 2.92825 1.09113 2.71625 1.22104C2.51442 1.34472 2.34473 1.51442 2.22104 1.71625C2.09113 1.92825 2.04257 2.15576 2.02067 2.38609C1.99998 2.60367 1.99999 2.86935 2 3.17738V3.1774V3.2V11.8V11.8226V11.8226C1.99999 12.1307 1.99998 12.3963 2.02067 12.6139C2.04257 12.8442 2.09113 13.0717 2.22104 13.2837C2.34473 13.4856 2.51442 13.6553 2.71625 13.779C2.92825 13.9089 3.15576 13.9574 3.38609 13.9793C3.60368 14 3.86937 14 4.17741 14H4.2H10.8H10.8226C11.1306 14 11.3963 14 11.6139 13.9793C11.8442 13.9574 12.0717 13.9089 12.2837 13.779C12.4856 13.6553 12.6553 13.4856 12.779 13.2837C12.9089 13.0717 12.9574 12.8442 12.9793 12.6139C13 12.3963 13 12.1306 13 11.8226V11.8V3.2V3.17741C13 2.86936 13 2.60368 12.9793 2.38609C12.9574 2.15576 12.9089 1.92825 12.779 1.71625C12.6553 1.51442 12.4856 1.34472 12.2837 1.22104C12.0717 1.09113 11.8442 1.04257 11.6139 1.02067C11.3963 0.999978 11.1306 0.999988 10.8226 1H10.8H4.2ZM3.23875 2.07368C3.26722 2.05623 3.32362 2.03112 3.48075 2.01618C3.64532 2.00053 3.86298 2 4.2 2H10.8C11.137 2 11.3547 2.00053 11.5193 2.01618C11.6764 2.03112 11.7328 2.05623 11.7613 2.07368C11.8285 2.11491 11.8851 2.17147 11.9263 2.23875C11.9438 2.26722 11.9689 2.32362 11.9838 2.48075C11.9995 2.64532 12 2.86298 12 3.2V11.8C12 12.137 11.9995 12.3547 11.9838 12.5193C11.9689 12.6764 11.9438 12.7328 11.9263 12.7613C11.8851 12.8285 11.8285 12.8851 11.7613 12.9263C11.7328 12.9438 11.6764 12.9689 11.5193 12.9838C11.3547 12.9995 11.137 13 10.8 13H4.2C3.86298 13 3.64532 12.9995 3.48075 12.9838C3.32362 12.9689 3.26722 12.9438 3.23875 12.9263C3.17147 12.8851 3.11491 12.8285 3.07368 12.7613C3.05624 12.7328 3.03112 12.6764 3.01618 12.5193C3.00053 12.3547 3 12.137 3 11.8V3.2C3 2.86298 3.00053 2.64532 3.01618 2.48075C3.03112 2.32362 3.05624 2.26722 3.07368 2.23875C3.11491 2.17147 3.17147 2.11491 3.23875 2.07368ZM5 10C4.72386 10 4.5 10.2239 4.5 10.5C4.5 10.7761 4.72386 11 5 11H8C8.27614 11 8.5 10.7761 8.5 10.5C8.5 10.2239 8.27614 10 8 10H5ZM4.5 7.5C4.5 7.22386 4.72386 7 5 7H10C10.2761 7 10.5 7.22386 10.5 7.5C10.5 7.77614 10.2761 8 10 8H5C4.72386 8 4.5 7.77614 4.5 7.5ZM5 4C4.72386 4 4.5 4.22386 4.5 4.5C4.5 4.77614 4.72386 5 5 5H10C10.2761 5 10.5 4.77614 10.5 4.5C10.5 4.22386 10.2761 4 10 4H5Z"
    fill="currentColor"
  ></path>
</symbol>
<symbol viewBox="0 0 15 15" fill="none" id="reset">
  <path     fill-rule="evenodd"
    clip-rule="evenodd"
    d="M4.85355 2.14645C5.04882 2.34171 5.04882 2.65829 4.85355 2.85355L3.70711 4H9C11.4853 4 13.5 6.01472 13.5 8.5C13.5 10.9853 11.4853 13 9 13H5C4.72386 13 4.5 12.7761 4.5 12.5C4.5 12.2239 4.72386 12 5 12H9C10.933 12 12.5 10.433 12.5 8.5C12.5 6.567 10.933 5 9 5H3.70711L4.85355 6.14645C5.04882 6.34171 5.04882 6.65829 4.85355 6.85355C4.65829 7.04882 4.34171 7.04882 4.14645 6.85355L2.14645 4.85355C1.95118 4.65829 1.95118 4.34171 2.14645 4.14645L4.14645 2.14645C4.34171 1.95118 4.65829 1.95118 4.85355 2.14645Z"
    fill="currentColor"
  ></path>
</symbol>
<symbol viewBox="0 0 15 15" fill="none" id="rows">
  <path
    fill-rule="evenodd"
    clip-rule="evenodd"
    d="M14 12.85L1 12.85L1 14.15L14 14.15L14 12.85ZM14 8.85002L1 8.85002L1 10.15L14 10.15L14 8.85002ZM1 4.85003L14 4.85003L14 6.15003L1 6.15002L1 4.85003ZM14 0.850025L1 0.850025L1 2.15002L14 2.15002L14 0.850025Z"
    fill="currentColor"
  ></path>
</symbol>
<symbol viewBox="0 0 15 15" fill="none" id="slash">
  <path
    fill-rule="evenodd"
    clip-rule="evenodd"
    d="M4.10876 14L9.46582 1H10.8178L5.46074 14H4.10876Z"
    fill="currentColor"
  ></path>
</symbol>
<symbol viewBox="0 0 15 15" fill="none" id="speaker-moderate">
  <path
    fill-rule="evenodd"
    clip-rule="evenodd"
    d="M8 1.5C8 1.31062 7.893 1.13749 7.72361 1.05279C7.55421 0.968093 7.35151 0.986371 7.2 1.1L3.33333 4H1.5C0.671573 4 0 4.67158 0 5.5V9.5C0 10.3284 0.671573 11 1.5 11H3.33333L7.2 13.9C7.35151 14.0136 7.55421 14.0319 7.72361 13.9472C7.893 13.8625 8 13.6894 8 13.5V1.5ZM3.8 4.9L7 2.5V12.5L3.8 10.1C3.71345 10.0351 3.60819 10 3.5 10H1.5C1.22386 10 1 9.77614 1 9.5V5.5C1 5.22386 1.22386 5 1.5 5H3.5C3.60819 5 3.71345 4.96491 3.8 4.9ZM10.833 3.95949C10.7106 3.77557 10.4623 3.72567 10.2784 3.84804C10.0944 3.97041 10.0445 4.21871 10.1669 4.40264C11.4111 6.27268 11.4111 8.72728 10.1669 10.5973C10.0445 10.7813 10.0944 11.0296 10.2784 11.1519C10.4623 11.2743 10.7106 11.2244 10.833 11.0405C12.2558 8.90199 12.2558 6.09798 10.833 3.95949Z"
    fill="currentColor"
  ></path>
</symbol>
<symbol viewBox="0 0 15 15" fill="none" id="square">
  <path
    fill-rule="evenodd"
    clip-rule="evenodd"
    d="M1 1H1.5H13.5H14V1.5V13.5V14H13.5H1.5H1V13.5V1.5V1ZM2 2V13H13V2H2Z"
    fill="currentColor"
  ></path>
</symbol>
<symbol viewBox="0 0 15 15" fill="none" id="star">
  <path
    fill-rule="evenodd"
    clip-rule="evenodd"
    d="M6.97942 1.25171L6.9585 1.30199L5.58662 4.60039C5.54342 4.70426 5.44573 4.77523 5.3336 4.78422L1.7727 5.0697L1.71841 5.07405L1.38687 5.10063L1.08608 5.12475C0.820085 5.14607 0.712228 5.47802 0.914889 5.65162L1.14406 5.84793L1.39666 6.06431L1.43802 6.09974L4.15105 8.42374C4.23648 8.49692 4.2738 8.61176 4.24769 8.72118L3.41882 12.196L3.40618 12.249L3.32901 12.5725L3.25899 12.866C3.19708 13.1256 3.47945 13.3308 3.70718 13.1917L3.9647 13.0344L4.24854 12.861L4.29502 12.8326L7.34365 10.9705C7.43965 10.9119 7.5604 10.9119 7.6564 10.9705L10.705 12.8326L10.7515 12.861L11.0354 13.0344L11.2929 13.1917C11.5206 13.3308 11.803 13.1256 11.7411 12.866L11.671 12.5725L11.5939 12.249L11.5812 12.196L10.7524 8.72118C10.7263 8.61176 10.7636 8.49692 10.849 8.42374L13.562 6.09974L13.6034 6.06431L13.856 5.84793L14.0852 5.65162C14.2878 5.47802 14.18 5.14607 13.914 5.12475L13.6132 5.10063L13.2816 5.07405L13.2274 5.0697L9.66645 4.78422C9.55432 4.77523 9.45663 4.70426 9.41343 4.60039L8.04155 1.30199L8.02064 1.25171L7.89291 0.944609L7.77702 0.665992C7.67454 0.419604 7.32551 0.419604 7.22303 0.665992L7.10715 0.944609L6.97942 1.25171ZM7.50003 2.60397L6.50994 4.98442C6.32273 5.43453 5.89944 5.74207 5.41351 5.78103L2.84361 5.98705L4.8016 7.66428C5.17183 7.98142 5.33351 8.47903 5.2204 8.95321L4.62221 11.461L6.8224 10.1171C7.23842 9.86302 7.76164 9.86302 8.17766 10.1171L10.3778 11.461L9.77965 8.95321C9.66654 8.47903 9.82822 7.98142 10.1984 7.66428L12.1564 5.98705L9.58654 5.78103C9.10061 5.74207 8.67732 5.43453 8.49011 4.98442L7.50003 2.60397Z"
    fill="currentColor"
  ></path>
</symbol>
<symbol viewBox="0 0 15 15" fill="none" id="sun">
  <path     fill-rule="evenodd"
    clip-rule="evenodd"
    d="M7.5 0C7.77614 0 8 0.223858 8 0.5V2.5C8 2.77614 7.77614 3 7.5 3C7.22386 3 7 2.77614 7 2.5V0.5C7 0.223858 7.22386 0 7.5 0ZM2.1967 2.1967C2.39196 2.00144 2.70854 2.00144 2.90381 2.1967L4.31802 3.61091C4.51328 3.80617 4.51328 4.12276 4.31802 4.31802C4.12276 4.51328 3.80617 4.51328 3.61091 4.31802L2.1967 2.90381C2.00144 2.70854 2.00144 2.39196 2.1967 2.1967ZM0.5 7C0.223858 7 0 7.22386 0 7.5C0 7.77614 0.223858 8 0.5 8H2.5C2.77614 8 3 7.77614 3 7.5C3 7.22386 2.77614 7 2.5 7H0.5ZM2.1967 12.8033C2.00144 12.608 2.00144 12.2915 2.1967 12.0962L3.61091 10.682C3.80617 10.4867 4.12276 10.4867 4.31802 10.682C4.51328 10.8772 4.51328 11.1938 4.31802 11.3891L2.90381 12.8033C2.70854 12.9986 2.39196 12.9986 2.1967 12.8033ZM12.5 7C12.2239 7 12 7.22386 12 7.5C12 7.77614 12.2239 8 12.5 8H14.5C14.7761 8 15 7.77614 15 7.5C15 7.22386 14.7761 7 14.5 7H12.5ZM10.682 4.31802C10.4867 4.12276 10.4867 3.80617 10.682 3.61091L12.0962 2.1967C12.2915 2.00144 12.608 2.00144 12.8033 2.1967C12.9986 2.39196 12.9986 2.70854 12.8033 2.90381L11.3891 4.31802C11.1938 4.51328 10.8772 4.51328 10.682 4.31802ZM8 12.5C8 12.2239 7.77614 12 7.5 12C7.22386 12 7 12.2239 7 12.5V14.5C7 14.7761 7.22386 15 7.5 15C7.77614 15 8 14.7761 8 14.5V12.5ZM10.682 10.682C10.8772 10.4867 11.1938 10.4867 11.3891 10.682L12.8033 12.0962C12.9986 12.2915 12.9986 12.608 12.8033 12.8033C12.608 12.9986 12.2915 12.9986 12.0962 12.8033L10.682 11.3891C10.4867 11.1938 10.4867 10.8772 10.682 10.682ZM5.5 7.5C5.5 6.39543 6.39543 5.5 7.5 5.5C8.60457 5.5 9.5 6.39543 9.5 7.5C9.5 8.60457 8.60457 9.5 7.5 9.5C6.39543 9.5 5.5 8.60457 5.5 7.5ZM7.5 4.5C5.84315 4.5 4.5 5.84315 4.5 7.5C4.5 9.15685 5.84315 10.5 7.5 10.5C9.15685 10.5 10.5 9.15685 10.5 7.5C10.5 5.84315 9.15685 4.5 7.5 4.5Z"
    fill="currentColor"
  ></path>
</symbol>
<symbol viewBox="0 0 15 15" fill="none" id="symbol">
  <path
    fill-rule="evenodd"
    clip-rule="evenodd"
    d="M1.90321 7.29677C1.90321 10.341 4.11041 12.4147 6.58893 12.8439C6.87255 12.893 7.06266 13.1627 7.01355 13.4464C6.96444 13.73 6.69471 13.9201 6.41109 13.871C3.49942 13.3668 0.86084 10.9127 0.86084 7.29677C0.860839 5.76009 1.55996 4.55245 2.37639 3.63377C2.96124 2.97568 3.63034 2.44135 4.16846 2.03202L2.53205 2.03202C2.25591 2.03202 2.03205 1.80816 2.03205 1.53202C2.03205 1.25588 2.25591 1.03202 2.53205 1.03202L5.53205 1.03202C5.80819 1.03202 6.03205 1.25588 6.03205 1.53202L6.03205 4.53202C6.03205 4.80816 5.80819 5.03202 5.53205 5.03202C5.25591 5.03202 5.03205 4.80816 5.03205 4.53202L5.03205 2.68645L5.03054 2.68759L5.03045 2.68766L5.03044 2.68767L5.03043 2.68767C4.45896 3.11868 3.76059 3.64538 3.15554 4.3262C2.44102 5.13021 1.90321 6.10154 1.90321 7.29677ZM13.0109 7.70321C13.0109 4.69115 10.8505 2.6296 8.40384 2.17029C8.12093 2.11718 7.93465 1.84479 7.98776 1.56188C8.04087 1.27898 8.31326 1.0927 8.59616 1.14581C11.4704 1.68541 14.0532 4.12605 14.0532 7.70321C14.0532 9.23988 13.3541 10.4475 12.5377 11.3662C11.9528 12.0243 11.2837 12.5586 10.7456 12.968L12.3821 12.968C12.6582 12.968 12.8821 13.1918 12.8821 13.468C12.8821 13.7441 12.6582 13.968 12.3821 13.968L9.38205 13.968C9.10591 13.968 8.88205 13.7441 8.88205 13.468L8.88205 10.468C8.88205 10.1918 9.10591 9.96796 9.38205 9.96796C9.65819 9.96796 9.88205 10.1918 9.88205 10.468L9.88205 12.3135L9.88362 12.3123C10.4551 11.8813 11.1535 11.3546 11.7585 10.6738C12.4731 9.86976 13.0109 8.89844 13.0109 7.70321Z"
    fill="currentColor"
  ></path>
</symbol>
<symbol viewBox="0 0 15 15" fill="none" id="table">
  <path
    fill-rule="evenodd"
    clip-rule="evenodd"
    d="M8 2H12.5C12.7761 2 13 2.22386 13 2.5V5H8V2ZM7 5V2H2.5C2.22386 2 2 2.22386 2 2.5V5H7ZM2 6V9H7V6H2ZM8 6H13V9H8V6ZM8 10H13V12.5C13 12.7761 12.7761 13 12.5 13H8V10ZM2 12.5V10H7V13H2.5C2.22386 13 2 12.7761 2 12.5ZM1 2.5C1 1.67157 1.67157 1 2.5 1H12.5C13.3284 1 14 1.67157 14 2.5V12.5C14 13.3284 13.3284 14 12.5 14H2.5C1.67157 14 1 13.3284 1 12.5V2.5Z"
    fill="currentColor"
  ></path>
</symbol>
<symbol viewBox="0 0 15 15" fill="none" id="target">
  <path
    fill-rule="evenodd"
    clip-rule="evenodd"
    d="M0.900024 7.50002C0.900024 3.85495 3.85495 0.900024 7.50002 0.900024C11.1451 0.900024 14.1 3.85495 14.1 7.50002C14.1 11.1451 11.1451 14.1 7.50002 14.1C3.85495 14.1 0.900024 11.1451 0.900024 7.50002ZM7.50002 1.80002C4.35201 1.80002 1.80002 4.35201 1.80002 7.50002C1.80002 10.648 4.35201 13.2 7.50002 13.2C10.648 13.2 13.2 10.648 13.2 7.50002C13.2 4.35201 10.648 1.80002 7.50002 1.80002ZM3.07504 7.50002C3.07504 5.05617 5.05618 3.07502 7.50004 3.07502C9.94388 3.07502 11.925 5.05617 11.925 7.50002C11.925 9.94386 9.94388 11.925 7.50004 11.925C5.05618 11.925 3.07504 9.94386 3.07504 7.50002ZM7.50004 3.92502C5.52562 3.92502 3.92504 5.52561 3.92504 7.50002C3.92504 9.47442 5.52563 11.075 7.50004 11.075C9.47444 11.075 11.075 9.47442 11.075 7.50002C11.075 5.52561 9.47444 3.92502 7.50004 3.92502ZM7.50004 5.25002C6.2574 5.25002 5.25004 6.25739 5.25004 7.50002C5.25004 8.74266 6.2574 9.75002 7.50004 9.75002C8.74267 9.75002 9.75004 8.74266 9.75004 7.50002C9.75004 6.25738 8.74267 5.25002 7.50004 5.25002ZM6.05004 7.50002C6.05004 6.69921 6.69923 6.05002 7.50004 6.05002C8.30084 6.05002 8.95004 6.69921 8.95004 7.50002C8.95004 8.30083 8.30084 8.95002 7.50004 8.95002C6.69923 8.95002 6.05004 8.30083 6.05004 7.50002Z"
    fill="currentColor"
  ></path>
</symbol>
<symbol viewBox="0 0 15 15" fill="none" id="text">
  <path
    fill-rule="evenodd"
    clip-rule="evenodd"
    d="M3.94993 2.95002L3.94993 4.49998C3.94993 4.74851 3.74845 4.94998 3.49993 4.94998C3.2514 4.94998 3.04993 4.74851 3.04993 4.49998V2.50004C3.04993 2.45246 3.05731 2.40661 3.07099 2.36357C3.12878 2.18175 3.29897 2.05002 3.49993 2.05002H11.4999C11.6553 2.05002 11.7922 2.12872 11.8731 2.24842C11.9216 2.32024 11.9499 2.40682 11.9499 2.50002L11.9499 2.50004V4.49998C11.9499 4.74851 11.7485 4.94998 11.4999 4.94998C11.2514 4.94998 11.0499 4.74851 11.0499 4.49998V2.95002H8.04993V12.05H9.25428C9.50281 12.05 9.70428 12.2515 9.70428 12.5C9.70428 12.7486 9.50281 12.95 9.25428 12.95H5.75428C5.50575 12.95 5.30428 12.7486 5.30428 12.5C5.30428 12.2515 5.50575 12.05 5.75428 12.05H6.94993V2.95002H3.94993Z"
    fill="currentColor"
  ></path>
</symbol>
<symbol id="trakt-logo" x="0px" y="0px" viewBox="0 0 144.8 144.8" enable-background="new 0 0 144.8 144.8" xml:space="preserve">
<g>
	<path fill="#ED2224" d="M29.5,111.8c10.6,11.6,25.9,18.8,42.9,18.8c8.7,0,16.9-1.9,24.3-5.3L56.3,85L29.5,111.8z"></path>
	<path fill="#ED2224" d="M56.1,60.6L25.5,91.1L21.4,87l32.2-32.2h0l37.6-37.6c-5.9-2-12.2-3.1-18.8-3.1c-32.2,0-58.3,26.1-58.3,58.3
		c0,13.1,4.3,25.2,11.7,35l30.5-30.5l2.1,2l43.7,43.7c0.9-0.5,1.7-1,2.5-1.6L56.3,72.7L27,102l-4.1-4.1l33.4-33.4l2.1,2l51,50.9
		c0.8-0.6,1.5-1.3,2.2-1.9l-55-55L56.1,60.6z"></path>
	<path fill="#ED1C24" d="M115.7,111.4c9.3-10.3,15-24,15-39c0-23.4-13.8-43.5-33.6-52.8L60.4,56.2L115.7,111.4z M74.5,66.8l-4.1-4.1
		l28.9-28.9l4.1,4.1L74.5,66.8z M101.9,27.1L68.6,60.4l-4.1-4.1L97.8,23L101.9,27.1z"></path>
	<g>
		<g>
			<path fill="#ED2224" d="M72.4,144.8C32.5,144.8,0,112.3,0,72.4C0,32.5,32.5,0,72.4,0s72.4,32.5,72.4,72.4
				C144.8,112.3,112.3,144.8,72.4,144.8z M72.4,7.3C36.5,7.3,7.3,36.5,7.3,72.4s29.2,65.1,65.1,65.1s65.1-29.2,65.1-65.1
				S108.3,7.3,72.4,7.3z"></path>
		</g>
	</g>
</g>
</symbol>
<symbol viewBox="0 0 15 15" fill="none" id="trash">
  <path     fill-rule="evenodd"
    clip-rule="evenodd"
    d="M5.5 1C5.22386 1 5 1.22386 5 1.5C5 1.77614 5.22386 2 5.5 2H9.5C9.77614 2 10 1.77614 10 1.5C10 1.22386 9.77614 1 9.5 1H5.5ZM3 3.5C3 3.22386 3.22386 3 3.5 3H5H10H11.5C11.7761 3 12 3.22386 12 3.5C12 3.77614 11.7761 4 11.5 4H11V12C11 12.5523 10.5523 13 10 13H5C4.44772 13 4 12.5523 4 12V4L3.5 4C3.22386 4 3 3.77614 3 3.5ZM5 4H10V12H5V4Z"
    fill="currentColor"
  ></path>
</symbol>
<symbol viewBox="0 0 15 15" fill="none" id="triangle-down">
  <path d="M4 6H11L7.5 10.5L4 6Z" fill="currentColor" ></path>
</symbol>
<symbol viewBox="0 0 15 15" fill="none" id="triangle-left">
  <path d="M9 4L9 11L4.5 7.5L9 4Z" fill="currentColor" ></path>
</symbol>
<symbol viewBox="0 0 15 15" fill="none" id="triangle-right">
  <path d="M6 11L6 4L10.5 7.5L6 11Z" fill="currentColor" ></path>
</symbol>
<symbol viewBox="0 0 15 15" fill="none" id="underline">
  <path
    fill-rule="evenodd"
    clip-rule="evenodd"
    d="M5.00001 2.75C5.00001 2.47386 4.77615 2.25 4.50001 2.25C4.22387 2.25 4.00001 2.47386 4.00001 2.75V8.05C4.00001 9.983 5.56702 11.55 7.50001 11.55C9.43301 11.55 11 9.983 11 8.05V2.75C11 2.47386 10.7762 2.25 10.5 2.25C10.2239 2.25 10 2.47386 10 2.75V8.05C10 9.43071 8.88072 10.55 7.50001 10.55C6.1193 10.55 5.00001 9.43071 5.00001 8.05V2.75ZM3.49998 13.1001C3.27906 13.1001 3.09998 13.2791 3.09998 13.5001C3.09998 13.721 3.27906 13.9001 3.49998 13.9001H11.5C11.7209 13.9001 11.9 13.721 11.9 13.5001C11.9 13.2791 11.7209 13.1001 11.5 13.1001H3.49998Z"
    fill="currentColor"
  ></path>
</symbol>
<symbol viewBox="0 0 15 15" fill="none" id="update">
  <path     fill-rule="evenodd"
    clip-rule="evenodd"
    d="M1.90321 7.29677C1.90321 10.341 4.11041 12.4147 6.58893 12.8439C6.87255 12.893 7.06266 13.1627 7.01355 13.4464C6.96444 13.73 6.69471 13.9201 6.41109 13.871C3.49942 13.3668 0.86084 10.9127 0.86084 7.29677C0.860839 5.76009 1.55996 4.55245 2.37639 3.63377C2.96124 2.97568 3.63034 2.44135 4.16846 2.03202L2.53205 2.03202C2.25591 2.03202 2.03205 1.80816 2.03205 1.53202C2.03205 1.25588 2.25591 1.03202 2.53205 1.03202L5.53205 1.03202C5.80819 1.03202 6.03205 1.25588 6.03205 1.53202L6.03205 4.53202C6.03205 4.80816 5.80819 5.03202 5.53205 5.03202C5.25591 5.03202 5.03205 4.80816 5.03205 4.53202L5.03205 2.68645L5.03054 2.68759L5.03045 2.68766L5.03044 2.68767L5.03043 2.68767C4.45896 3.11868 3.76059 3.64538 3.15554 4.3262C2.44102 5.13021 1.90321 6.10154 1.90321 7.29677ZM13.0109 7.70321C13.0109 4.69115 10.8505 2.6296 8.40384 2.17029C8.12093 2.11718 7.93465 1.84479 7.98776 1.56188C8.04087 1.27898 8.31326 1.0927 8.59616 1.14581C11.4704 1.68541 14.0532 4.12605 14.0532 7.70321C14.0532 9.23988 13.3541 10.4475 12.5377 11.3662C11.9528 12.0243 11.2837 12.5586 10.7456 12.968L12.3821 12.968C12.6582 12.968 12.8821 13.1918 12.8821 13.468C12.8821 13.7441 12.6582 13.968 12.3821 13.968L9.38205 13.968C9.10591 13.968 8.88205 13.7441 8.88205 13.468L8.88205 10.468C8.88205 10.1918 9.10591 9.96796 9.38205 9.96796C9.65819 9.96796 9.88205 10.1918 9.88205 10.468L9.88205 12.3135L9.88362 12.3123C10.4551 11.8813 11.1535 11.3546 11.7585 10.6738C12.4731 9.86976 13.0109 8.89844 13.0109 7.70321Z"
    fill="currentColor"
  ></path>
</symbol>
<symbol viewBox="0 0 15 15" fill="none" id="upload">
  <path
    fill-rule="evenodd"
    clip-rule="evenodd"
    d="M7.81825 1.18188C7.64251 1.00615 7.35759 1.00615 7.18185 1.18188L4.18185 4.18188C4.00611 4.35762 4.00611 4.64254 4.18185 4.81828C4.35759 4.99401 4.64251 4.99401 4.81825 4.81828L7.05005 2.58648V9.49996C7.05005 9.74849 7.25152 9.94996 7.50005 9.94996C7.74858 9.94996 7.95005 9.74849 7.95005 9.49996V2.58648L10.1819 4.81828C10.3576 4.99401 10.6425 4.99401 10.8182 4.81828C10.994 4.64254 10.994 4.35762 10.8182 4.18188L7.81825 1.18188ZM2.5 9.99997C2.77614 9.99997 3 10.2238 3 10.5V12C3 12.5538 3.44565 13 3.99635 13H11.0012C11.5529 13 12 12.5528 12 12V10.5C12 10.2238 12.2239 9.99997 12.5 9.99997C12.7761 9.99997 13 10.2238 13 10.5V12C13 13.104 12.1062 14 11.0012 14H3.99635C2.89019 14 2 13.103 2 12V10.5C2 10.2238 2.22386 9.99997 2.5 9.99997Z"
    fill="currentColor"
  ></path>
</symbol>
<symbol viewBox="0 0 15 15" fill="none" id="value">
  <path
    fill-rule="evenodd"
    clip-rule="evenodd"
    d="M0.877075 7.49988C0.877075 3.84219 3.84222 0.877045 7.49991 0.877045C11.1576 0.877045 14.1227 3.84219 14.1227 7.49988C14.1227 11.1575 11.1576 14.1227 7.49991 14.1227C3.84222 14.1227 0.877075 11.1575 0.877075 7.49988ZM7.49991 1.82704C4.36689 1.82704 1.82708 4.36686 1.82708 7.49988C1.82708 10.6329 4.36689 13.1727 7.49991 13.1727C10.6329 13.1727 13.1727 10.6329 13.1727 7.49988C13.1727 4.36686 10.6329 1.82704 7.49991 1.82704Z"
    fill="currentColor"
  ></path>
</symbol>
<symbol viewBox="0 0 15 15" fill="none" id="video">
  <path
    fill-rule="evenodd"
    clip-rule="evenodd"
    d="M4.76447 3.12199C5.63151 3.04859 6.56082 3 7.5 3C8.43918 3 9.36849 3.04859 10.2355 3.12199C11.2796 3.21037 11.9553 3.27008 12.472 3.39203C12.9425 3.50304 13.2048 3.64976 13.4306 3.88086C13.4553 3.90618 13.4902 3.94414 13.5133 3.97092C13.7126 4.20149 13.8435 4.4887 13.918 5.03283C13.9978 5.6156 14 6.37644 14 7.52493C14 8.66026 13.9978 9.41019 13.9181 9.98538C13.8439 10.5206 13.7137 10.8061 13.5125 11.0387C13.4896 11.0651 13.4541 11.1038 13.4296 11.1287C13.2009 11.3625 12.9406 11.5076 12.4818 11.6164C11.9752 11.7365 11.3143 11.7942 10.2878 11.8797C9.41948 11.9521 8.47566 12 7.5 12C6.52434 12 5.58052 11.9521 4.7122 11.8797C3.68572 11.7942 3.02477 11.7365 2.51816 11.6164C2.05936 11.5076 1.7991 11.3625 1.57037 11.1287C1.54593 11.1038 1.51035 11.0651 1.48748 11.0387C1.28628 10.8061 1.15612 10.5206 1.08193 9.98538C1.00221 9.41019 1 8.66026 1 7.52493C1 6.37644 1.00216 5.6156 1.082 5.03283C1.15654 4.4887 1.28744 4.20149 1.48666 3.97092C1.5098 3.94414 1.54468 3.90618 1.56942 3.88086C1.7952 3.64976 2.05752 3.50304 2.52796 3.39203C3.04473 3.27008 3.7204 3.21037 4.76447 3.12199ZM0 7.52493C0 5.28296 0 4.16198 0.729985 3.31713C0.766457 3.27491 0.815139 3.22194 0.854123 3.18204C1.63439 2.38339 2.64963 2.29744 4.68012 2.12555C5.56923 2.05028 6.52724 2 7.5 2C8.47276 2 9.43077 2.05028 10.3199 2.12555C12.3504 2.29744 13.3656 2.38339 14.1459 3.18204C14.1849 3.22194 14.2335 3.27491 14.27 3.31713C15 4.16198 15 5.28296 15 7.52493C15 9.74012 15 10.8477 14.2688 11.6929C14.2326 11.7348 14.1832 11.7885 14.1444 11.8281C13.3629 12.6269 12.3655 12.71 10.3709 12.8763C9.47971 12.9505 8.50782 13 7.5 13C6.49218 13 5.52028 12.9505 4.62915 12.8763C2.63446 12.71 1.63712 12.6269 0.855558 11.8281C0.816844 11.7885 0.767442 11.7348 0.731221 11.6929C0 10.8477 0 9.74012 0 7.52493ZM5.25 5.38264C5.25 5.20225 5.43522 5.08124 5.60041 5.15369L10.428 7.27105C10.6274 7.35853 10.6274 7.64147 10.428 7.72895L5.60041 9.84631C5.43522 9.91876 5.25 9.79775 5.25 9.61736V5.38264Z"
    fill="currentColor"
  ></path>
</symbol>
<symbol viewBox="0 0 15 15" fill="none" id="width">
  <path
    fill-rule="evenodd"
    clip-rule="evenodd"
    d="M4.81812 4.68161C4.99386 4.85734 4.99386 5.14227 4.81812 5.318L3.08632 7.0498H11.9135L10.1817 5.318C10.006 5.14227 10.006 4.85734 10.1817 4.68161C10.3575 4.50587 10.6424 4.50587 10.8181 4.68161L13.3181 7.18161C13.4939 7.35734 13.4939 7.64227 13.3181 7.818L10.8181 10.318C10.6424 10.4937 10.3575 10.4937 10.1817 10.318C10.006 10.1423 10.006 9.85734 10.1817 9.68161L11.9135 7.9498H3.08632L4.81812 9.68161C4.99386 9.85734 4.99386 10.1423 4.81812 10.318C4.64239 10.4937 4.35746 10.4937 4.18173 10.318L1.68173 7.818C1.50599 7.64227 1.50599 7.35734 1.68173 7.18161L4.18173 4.68161C4.35746 4.50587 4.64239 4.50587 4.81812 4.68161Z"
    fill="currentColor"
  ></path>
</symbol>
</defs>
</svg>
